<svg width="66" height="66" viewBox="0 0 66 66" fill="none" xmlns="http://www.w3.org/2000/svg">
<path d="M10.3049 21.9087V23.5369C10.3049 24.0727 12.3559 25.0207 13.3552 25.3921C14.4063 25.7936 14.9423 26.1856 14.9423 27.2468C14.9423 28.3085 14.9423 29.3697 14.9423 29.3697H0.515137C0.515137 29.3697 0.515137 28.3086 0.515137 27.2468C0.515137 26.1856 1.04043 25.7936 2.10223 25.3921C3.10151 25.0207 5.15241 24.0727 5.15241 23.5369V21.9087L5.31754 21.7647C6.10039 22.6407 7.01768 23.1866 7.72873 23.1866C8.43978 23.1866 9.35695 22.6407 10.1399 21.7647L10.3049 21.9087Z" fill="#5C9EFF"/>
<path d="M1.54561 28.2773C1.54561 27.2161 2.07091 26.8241 3.13271 26.4226C4.13199 26.0512 6.18289 25.1032 6.18289 24.5673V22.939C6.18289 22.939 6.10039 22.6406 5.31754 21.7645L5.15241 21.9085V23.5367C5.15241 24.0726 3.10151 25.0206 2.10223 25.392C1.04056 25.7935 0.515137 26.1855 0.515137 27.2467C0.515137 28.3083 0.515137 29.3696 0.515137 29.3696H1.54561C1.54561 29.0376 1.54561 28.6582 1.54561 28.2773Z" fill="#94C1FF"/>
<path d="M13.9118 28.2773C13.9118 27.2161 13.3865 26.8241 12.3247 26.4226C11.3254 26.0512 9.27441 25.1032 9.27441 24.5673V22.939C9.27441 22.939 9.35691 22.6406 10.1399 21.7645L10.3049 21.9085V23.5367C10.3049 24.0726 12.3559 25.0206 13.3552 25.392C14.4169 25.7935 14.9423 26.1855 14.9423 27.2467C14.9423 28.3083 14.9423 29.3696 14.9423 29.3696H13.9118C13.9118 29.0376 13.9118 28.6582 13.9118 28.2773Z" fill="#2287FF"/>
<path d="M35.5525 9.54241V11.1706C35.5525 11.7065 37.6034 12.6545 38.6028 13.0258C39.6544 13.4274 40.1899 13.8194 40.1899 14.8805C40.1899 15.9422 40.1899 17.0035 40.1899 17.0035H25.7627C25.7627 17.0035 25.7627 15.9423 25.7627 14.8805C25.7627 13.8194 26.2879 13.4274 27.3497 13.0258C28.3491 12.6545 30.4 11.7065 30.4 11.1706V9.54241L30.565 9.39855C31.3479 10.2746 32.2652 10.8205 32.9763 10.8205C33.6873 10.8205 34.6046 10.2746 35.3875 9.39855L35.5525 9.54241Z" fill="#5C9EFF"/>
<path d="M58.224 23.1866C58.9355 23.1866 59.8522 22.6407 60.6352 21.7647L60.8002 21.9087V23.5369C60.8002 24.0727 62.8511 25.0207 63.8505 25.3921C64.9021 25.7936 65.4376 26.1856 65.4376 27.2468C65.4376 28.3085 65.4376 29.3697 65.4376 29.3697H51.0103C51.0103 29.3697 51.0103 28.3086 51.0103 27.2468C51.0103 26.1856 51.5357 25.7936 52.5973 25.3921C53.5966 25.0207 55.6475 24.0727 55.6475 23.5369V21.9087L55.8125 21.7647C56.5958 22.6407 57.5125 23.1866 58.224 23.1866Z" fill="#5C9EFF"/>
<path d="M58.224 12.8815C60.5012 12.8815 62.346 14.7774 62.346 17.6527C62.346 19.2296 61.5831 20.7236 60.6353 21.7647C59.8523 22.6407 58.9355 23.1866 58.2241 23.1866C57.5127 23.1866 56.5957 22.6407 55.8128 21.7647C54.8648 20.7236 54.1021 19.2296 54.1021 17.6527C54.1019 14.7774 55.9464 12.8815 58.224 12.8815Z" fill="#D7E9FF"/>
<path d="M32.9764 0.515366C35.2538 0.515366 37.0984 2.41132 37.0984 5.28657C37.0984 6.86348 36.3357 8.35751 35.3877 9.39855C34.6049 10.2746 33.6876 10.8205 32.9765 10.8205C32.2655 10.8205 31.3482 10.2746 30.5652 9.39855C29.6172 8.35738 28.8545 6.86348 28.8545 5.28657C28.8542 2.41132 30.699 0.515366 32.9764 0.515366Z" fill="#D7E9FF"/>
<path d="M7.72884 12.8815C10.0062 12.8815 11.8509 14.7774 11.8509 17.6527C11.8509 19.2296 11.0881 20.7236 10.1402 21.7647C9.35718 22.6407 8.44002 23.1866 7.72897 23.1866C7.01792 23.1866 6.10063 22.6407 5.31778 21.7647C4.3698 20.7236 3.60693 19.2296 3.60693 17.6527C3.60668 14.7774 5.45145 12.8815 7.72884 12.8815Z" fill="#D7E9FF"/>
<path d="M7.37837 21.7647C6.43039 20.7236 5.66766 19.2296 5.66766 17.6527C5.66766 15.2294 6.98392 13.5175 8.75909 13.034C8.42805 12.9439 8.08684 12.8815 7.72861 12.8815C5.45122 12.8815 3.60645 14.7774 3.60645 17.6527C3.60645 19.2296 4.36931 20.7236 5.31729 21.7647C6.10014 22.6407 7.01743 23.1866 7.72848 23.1866C8.04095 23.1866 8.3957 23.0653 8.75896 22.8726C8.29567 22.6272 7.81704 22.2558 7.37837 21.7647Z" fill="white"/>
<path d="M8.07896 21.7647C9.02693 20.7236 9.78967 19.2296 9.78967 17.6527C9.78967 15.2294 8.47341 13.5175 6.69824 13.034C7.02927 12.9439 7.37049 12.8815 7.72872 12.8815C10.0061 12.8815 11.8508 14.7774 11.8508 17.6527C11.8508 19.2296 11.088 20.7236 10.14 21.7647C9.35706 22.6407 8.43989 23.1866 7.72885 23.1866C7.41638 23.1866 7.06163 23.0653 6.69837 22.8726C7.16166 22.6272 7.64016 22.2558 8.07896 21.7647Z" fill="#94C1FF"/>
<path d="M32.6259 9.39855C31.678 8.35738 30.9151 6.86348 30.9151 5.28657C30.9151 2.86326 32.2315 1.15139 34.0066 0.667862C33.6756 0.577756 33.3344 0.515366 32.9762 0.515366C30.6988 0.515366 28.854 2.41132 28.854 5.28657C28.854 6.86348 29.6169 8.35751 30.5647 9.39855C31.3477 10.2746 32.265 10.8205 32.976 10.8205C33.2885 10.8205 33.6433 10.6992 34.0065 10.5065C33.5432 10.2609 33.0647 9.88956 32.6259 9.39855Z" fill="white"/>
<path d="M33.3266 9.39855C34.2746 8.35738 35.0374 6.86348 35.0374 5.28657C35.0374 2.86326 33.721 1.15139 31.9458 0.667862C32.277 0.577885 32.6182 0.515366 32.9764 0.515366C35.2538 0.515366 37.0984 2.41132 37.0984 5.28657C37.0984 6.86348 36.3357 8.35751 35.3877 9.39855C34.6049 10.2746 33.6876 10.8205 32.9765 10.8205C32.6639 10.8205 32.3092 10.6992 31.9459 10.5065C32.4093 10.2609 32.8877 9.88956 33.3266 9.39855Z" fill="#94C1FF"/>
<path d="M57.874 21.7647C56.926 20.7236 56.1631 19.2296 56.1631 17.6527C56.1631 15.2294 57.4795 13.5175 59.2547 13.034C58.9237 12.9439 58.5824 12.8815 58.2242 12.8815C55.9467 12.8815 54.1021 14.7774 54.1021 17.6527C54.1021 19.2296 54.8648 20.7236 55.8128 21.7647C56.5957 22.6407 57.5136 23.1866 58.2241 23.1866C58.536 23.1866 58.8913 23.0653 59.2546 22.8726C58.7917 22.6272 58.3126 22.2558 57.874 21.7647Z" fill="white"/>
<path d="M58.5741 21.7647C59.5221 20.7236 60.2848 19.2296 60.2848 17.6527C60.2848 15.2294 58.9684 13.5175 57.1934 13.034C57.5244 12.9439 57.8656 12.8815 58.2238 12.8815C60.5011 12.8815 62.3459 14.7774 62.3459 17.6527C62.3459 19.2296 61.583 20.7236 60.6352 21.7647C59.8522 22.6407 58.9345 23.1866 58.224 23.1866C57.9119 23.1866 57.5566 23.0653 57.1935 22.8726C57.6563 22.6272 58.1353 22.2558 58.5741 21.7647Z" fill="#94C1FF"/>
<path d="M26.7937 15.9112C26.7937 14.85 27.319 14.458 28.3808 14.0563C29.38 13.6849 31.4311 12.7371 31.4311 12.2011V10.5729C31.4311 10.5729 31.3484 10.2746 30.5655 9.39855L30.4005 9.54241V11.1706C30.4005 11.7065 28.3496 12.6545 27.3501 13.0258C26.2885 13.4274 25.7632 13.8194 25.7632 14.8805C25.7632 15.9422 25.7632 17.0035 25.7632 17.0035H26.7937C26.7937 16.6714 26.7937 16.2921 26.7937 15.9112Z" fill="#94C1FF"/>
<path d="M39.1594 15.9112C39.1594 14.85 38.634 14.458 37.5733 14.0563C36.5729 13.6849 34.522 12.7371 34.522 12.2011V10.5729C34.522 10.5729 34.6046 10.2746 35.3874 9.39855L35.5524 9.54241V11.1706C35.5524 11.7065 37.6033 12.6545 38.6038 13.0258C39.6646 13.4274 40.1899 13.8194 40.1899 14.8805C40.1899 15.9422 40.1899 17.0035 40.1899 17.0035H39.1594C39.1594 16.6714 39.1594 16.2921 39.1594 15.9112Z" fill="#2287FF"/>
<path d="M52.0407 28.2773C52.0407 27.2161 52.5662 26.8241 53.6289 26.4226C54.6271 26.0512 56.678 25.1032 56.678 24.5673V22.939C56.678 22.939 56.5955 22.6406 55.8125 21.7645L55.6475 21.9085V23.5367C55.6475 24.0726 53.5966 25.0206 52.5984 25.392C51.5357 25.7935 51.0103 26.1855 51.0103 27.2467C51.0103 28.3083 51.0103 29.3696 51.0103 29.3696H52.0407C52.0407 29.0376 52.0407 28.6582 52.0407 28.2773Z" fill="#94C1FF"/>
<path d="M64.4068 28.2773C64.4068 27.2161 63.8816 26.8241 62.8209 26.4226C61.8204 26.0512 59.7695 25.1032 59.7695 24.5673V22.939C59.7695 22.939 59.852 22.6406 60.635 21.7645L60.8 21.9085V23.5367C60.8 24.0726 62.8509 25.0206 63.8513 25.392C64.9121 25.7935 65.4374 26.1855 65.4374 27.2467C65.4374 28.3083 65.4374 29.3696 65.4374 29.3696H64.4068C64.4068 29.0376 64.4068 28.6582 64.4068 28.2773Z" fill="#2287FF"/>
<path d="M29.3696 63.3768C29.3696 63.3768 30.4001 65.4377 32.9764 65.4377C35.5526 65.4377 36.5831 63.3768 36.5831 63.3768H29.3696Z" fill="#94C1FF"/>
<path d="M31.4307 63.3768H29.3696C29.3696 63.3768 30.4001 65.4377 32.9764 65.4377C33.3562 65.4377 33.6925 65.3833 34.0069 65.3067C32.1895 64.8661 31.4307 63.3768 31.4307 63.3768Z" fill="#D7E9FF"/>
<path d="M34.5221 63.3768H36.5831C36.5831 63.3768 35.5526 65.4377 32.9764 65.4377C32.596 65.4377 32.2598 65.3833 31.9458 65.3067C33.7632 64.8661 34.5221 63.3768 34.5221 63.3768Z" fill="#5C9EFF"/>
<path d="M40.7054 61.3157L38.6443 63.3768H27.3086L25.2476 61.3157V55.1326H40.7054V61.3157Z" fill="#94C1FF"/>
<path d="M27.3086 55.1326H25.2476V61.3157L27.3086 63.3768H29.3697L27.3086 61.3157V55.1326Z" fill="#D7E9FF"/>
<path d="M38.6441 55.1326H40.7052V61.3157L38.6441 63.3768H36.583L38.6441 61.3157V55.1326Z" fill="#5C9EFF"/>
<path d="M48.9494 39.1597C48.9494 30.3378 41.7981 23.1866 32.9764 23.1866C24.1547 23.1866 17.0034 30.3378 17.0034 39.1597C17.0034 45.1767 20.3335 50.4107 25.2475 53.135V55.1326H40.7073V53.134C45.6203 50.4097 48.9494 45.1757 48.9494 39.1597Z" fill="#D7E9FF"/>
<path d="M46.8884 39.1597C46.8884 30.6856 40.2846 23.7724 31.9458 23.2384C32.2879 23.2168 32.6282 23.1866 32.9764 23.1866C41.7982 23.1866 48.9493 30.3378 48.9493 39.1597C48.9493 45.1767 45.6182 50.4107 40.7052 53.135C40.7052 53.135 46.8884 47.919 46.8884 39.1597Z" fill="#94C1FF"/>
<path d="M19.0645 39.1597C19.0645 30.6856 25.6682 23.7724 34.0069 23.2384C33.6648 23.2168 33.3246 23.1866 32.9764 23.1866C24.1546 23.1866 17.0034 30.3378 17.0034 39.1597C17.0034 45.1767 20.3345 50.4107 25.2475 53.135C25.2475 53.135 19.0645 47.919 19.0645 39.1597Z" fill="white"/>
<path d="M35.5524 48.9494L32.9762 46.8885L30.3999 48.9494V54.1021H35.5524V48.9494Z" fill="white"/>
<path d="M28.3398 41.7355C29.478 41.7355 30.4007 40.8127 30.4007 39.6745C30.4007 38.5363 29.478 37.6136 28.3398 37.6136C27.2015 37.6136 26.2788 38.5363 26.2788 39.6745C26.2788 40.8127 27.2015 41.7355 28.3398 41.7355Z" fill="white"/>
<path d="M39.6748 39.6749C39.6748 40.8131 38.7509 41.7358 37.6137 41.7358C36.4745 41.7358 35.5527 40.8131 35.5527 39.6749C35.5527 38.5366 36.4745 37.6139 37.6137 37.6139C38.7509 37.6139 39.6748 38.5366 39.6748 39.6749Z" fill="white"/>
<rect x="25.2471" y="54.1017" width="15.4584" height="1.03048" fill="#94C1FF"/>
<path fill-rule="evenodd" clip-rule="evenodd" d="M55.4281 22.1078C56.3207 23.1061 57.3653 23.7019 58.2238 23.7019C59.0823 23.7019 60.1269 23.1062 61.0165 22.1113C62.1889 20.8238 62.8611 19.1984 62.8611 17.6527C62.8611 14.5892 60.9108 12.3662 58.2238 12.3662C55.5368 12.3662 53.5864 14.5892 53.5864 17.6527C53.5864 19.1984 54.2587 20.8238 55.4281 22.1078ZM54.617 17.6527C54.617 15.1866 56.1336 13.3967 58.2238 13.3967C60.314 13.3967 61.8306 15.1866 61.8306 17.6527C61.8306 18.9454 61.256 20.3176 60.2506 21.4215C59.5723 22.1808 58.7762 22.6714 58.2238 22.6714C57.6713 22.6714 56.8752 22.1806 56.1939 21.4179C55.1917 20.3176 54.617 18.9454 54.617 17.6527Z" fill="#116FFF"/>
<path d="M65.4377 29.885H51.0104C50.7256 29.885 50.4951 29.6545 50.4951 29.3697V27.2468C50.4951 25.7604 51.4441 25.2774 52.4153 24.9101C53.6039 24.4687 54.9221 23.7628 55.1386 23.4573C55.1769 23.2107 55.3902 23.0216 55.6478 23.0216C55.9325 23.0216 56.163 23.2521 56.163 23.5369C56.163 24.5115 53.7951 25.4968 52.7765 25.8751C51.7722 26.255 51.5257 26.5248 51.5257 27.2468V28.8544H64.9224V27.2468C64.9224 26.5283 64.6758 26.2585 63.6665 25.8735C62.653 25.4966 60.2852 24.5115 60.2852 23.5369C60.2852 23.2521 60.5155 23.0216 60.8004 23.0216C61.0581 23.0216 61.2713 23.2107 61.3096 23.4573C61.526 23.7627 62.8442 24.4687 64.0298 24.9091C65.0049 25.2813 65.953 25.7669 65.953 27.2468V29.3697C65.9529 29.6545 65.7224 29.885 65.4377 29.885Z" fill="#116FFF"/>
<path d="M55.6476 24.0521C55.3628 24.0521 55.1323 23.8216 55.1323 23.5369V21.9086C55.1323 21.6238 55.3628 21.3933 55.6476 21.3933C55.9323 21.3933 56.1628 21.6238 56.1628 21.9086V23.5369C56.1628 23.8216 55.9323 24.0521 55.6476 24.0521Z" fill="#116FFF"/>
<path d="M60.8004 24.0521C60.5155 24.0521 60.2852 23.8216 60.2852 23.5369V21.9086C60.2852 21.6238 60.5155 21.3933 60.8004 21.3933C61.0851 21.3933 61.3156 21.6238 61.3156 21.9086V23.5369C61.3156 23.8216 61.0851 24.0521 60.8004 24.0521Z" fill="#116FFF"/>
<path fill-rule="evenodd" clip-rule="evenodd" d="M4.93299 22.1078C5.82515 23.1061 6.87032 23.7019 7.72871 23.7019C8.5871 23.7019 9.63214 23.1062 10.5209 22.1113C11.6934 20.8238 12.3661 19.1984 12.3661 17.6527C12.3661 14.5892 10.4156 12.3662 7.72871 12.3662C5.04166 12.3662 3.09131 14.5892 3.09131 17.6527C3.09131 19.1984 3.76407 20.8238 4.93299 22.1078ZM4.12191 17.6527C4.12191 15.1866 5.63901 13.3967 7.72871 13.3967C9.81841 13.3967 11.3355 15.1866 11.3356 17.6527C11.3356 18.9454 10.761 20.3176 9.7555 21.4215C9.0772 22.1808 8.2812 22.6714 7.72871 22.6714C7.17622 22.6714 6.38022 22.1806 5.69831 21.4179C4.69658 20.3176 4.12191 18.9454 4.12191 17.6527Z" fill="#116FFF"/>
<path d="M14.9424 29.885H0.515238C0.230355 29.885 0 29.6545 0 29.3697V27.2468C0 25.7604 0.948363 25.2774 1.92019 24.9101C3.10819 24.4687 4.42638 23.7628 4.64333 23.4573C4.68162 23.2107 4.89496 23.0216 5.15251 23.0216C5.43739 23.0216 5.66788 23.2521 5.66788 23.5369C5.66788 24.5115 3.29987 25.4968 2.2819 25.8751C1.27643 26.255 1.03048 26.5248 1.03048 27.2468V28.8544H14.4272V27.2468C14.4272 26.5283 14.1806 26.259 13.1718 25.8735C12.1579 25.4966 9.78991 24.5115 9.78991 23.5369C9.78991 23.2521 10.0204 23.0216 10.3052 23.0216C10.5628 23.0216 10.776 23.2107 10.8143 23.4573C11.0313 23.7627 12.3496 24.4687 13.535 24.9091C14.5102 25.2813 15.4577 25.7675 15.4577 27.2468V29.3697C15.4577 29.6545 15.2272 29.885 14.9424 29.885Z" fill="#116FFF"/>
<path d="M5.15232 24.0521C4.86756 24.0521 4.63721 23.8216 4.63721 23.5369V21.9086C4.63721 21.6238 4.86756 21.3933 5.15232 21.3933C5.4372 21.3933 5.66768 21.6238 5.66768 21.9086V23.5369C5.66768 23.8216 5.4372 24.0521 5.15232 24.0521Z" fill="#116FFF"/>
<path d="M10.3048 24.0521C10.02 24.0521 9.78955 23.8216 9.78955 23.5369V21.9086C9.78955 21.6238 10.02 21.3933 10.3048 21.3933C10.5897 21.3933 10.82 21.6238 10.82 21.9086V23.5369C10.82 23.8216 10.5897 24.0521 10.3048 24.0521Z" fill="#116FFF"/>
<path fill-rule="evenodd" clip-rule="evenodd" d="M30.1809 9.7417C31.0731 10.74 32.1182 11.3358 32.9766 11.3358C33.835 11.3358 34.8797 10.74 35.7694 9.74518C36.9418 8.45754 37.614 6.83216 37.614 5.28645C37.614 2.22299 35.6638 0 32.9768 0C30.2897 0 28.3394 2.22299 28.3394 5.28645C28.3394 6.83229 29.0121 8.45754 30.1809 9.7417ZM29.3698 5.28657C29.3698 2.82047 30.8868 1.03061 32.9766 1.03061C35.0668 1.03061 36.5833 2.82047 36.5834 5.28657C36.5834 6.57925 36.0089 7.95145 35.0034 9.05541C34.3251 9.81466 33.5291 10.3053 32.9766 10.3053C32.4241 10.3053 31.628 9.81454 30.9462 9.0518C29.9445 7.95145 29.3698 6.57925 29.3698 5.28657Z" fill="#116FFF"/>
<path d="M40.1901 17.5187H25.7629C25.478 17.5187 25.2476 17.2883 25.2476 17.0035V14.8807C25.2476 13.3943 26.1961 12.9112 27.1677 12.544C28.3557 12.1026 29.6741 11.3967 29.8909 11.0912C29.9292 10.8446 30.1425 10.6555 30.4001 10.6555C30.685 10.6555 30.9153 10.886 30.9153 11.1708C30.9153 12.1454 28.5474 13.1306 27.5295 13.509C26.524 13.8889 26.278 14.1587 26.278 14.8807V16.4884H39.6747V14.8807C39.6747 14.1622 39.4281 13.8924 38.4188 13.5074C37.4055 13.1306 35.0375 12.1454 35.0375 11.1708C35.0375 10.886 35.268 10.6555 35.5527 10.6555C35.8104 10.6555 36.0237 10.8448 36.0619 11.0912C36.2783 11.3966 37.5965 12.1026 38.7822 12.543C39.7572 12.9154 40.7054 13.4008 40.7054 14.8807V17.0036C40.7054 17.2884 40.4749 17.5187 40.1901 17.5187Z" fill="#116FFF"/>
<path d="M30.4 11.686C30.1152 11.686 29.8848 11.4555 29.8848 11.1706V9.54241C29.8848 9.25766 30.1152 9.02718 30.4 9.02718C30.6849 9.02718 30.9152 9.25766 30.9152 9.54241V11.1706C30.9152 11.4555 30.6849 11.686 30.4 11.686Z" fill="#116FFF"/>
<path d="M35.5528 11.686C35.2681 11.686 35.0376 11.4555 35.0376 11.1706V9.54241C35.0376 9.25766 35.2681 9.02718 35.5528 9.02718C35.8376 9.02718 36.0681 9.25766 36.0681 9.54241V11.1706C36.0681 11.4555 35.8376 11.686 35.5528 11.686Z" fill="#116FFF"/>
<path d="M25.2467 53.6692C25.1628 53.6692 25.0773 53.6492 24.9982 53.6049C19.749 50.7057 16.4878 45.1706 16.4878 39.1595C16.4878 30.068 23.8846 22.6713 32.9761 22.6713C33.2608 22.6713 33.4913 22.9017 33.4913 23.1865C33.4913 23.4712 33.2608 23.7017 32.9761 23.7017C24.4527 23.7017 17.5183 30.636 17.5183 39.1595C17.5183 44.7952 20.5752 49.9849 25.4963 52.7031C25.7455 52.84 25.8359 53.154 25.698 53.4035C25.6044 53.5727 25.4285 53.6692 25.2467 53.6692Z" fill="#116FFF"/>
<path d="M40.7054 53.6692C40.5243 53.6692 40.3482 53.5727 40.2546 53.4035C40.1167 53.154 40.2073 52.84 40.4558 52.7031C45.3769 49.9849 48.4343 44.795 48.4343 39.1595C48.4343 30.6361 41.5005 23.7017 32.9767 23.7017C32.6918 23.7017 32.4614 23.4712 32.4614 23.1865C32.4614 22.9017 32.6918 22.6713 32.9767 22.6713C42.068 22.6713 49.4648 30.068 49.4648 39.1595C49.4648 45.1706 46.2043 50.7066 40.9551 53.6049C40.8754 53.6492 40.7898 53.6692 40.7054 53.6692Z" fill="#116FFF"/>
<path d="M25.2475 61.8309C24.9628 61.8309 24.7324 61.6006 24.7324 61.3157V53.1542C24.7324 52.8694 24.9628 52.6389 25.2475 52.6389C25.5324 52.6389 25.7629 52.8694 25.7629 53.1542V61.3157C25.7629 61.6006 25.5324 61.8309 25.2475 61.8309Z" fill="#116FFF"/>
<path d="M40.7052 61.8309C40.4203 61.8309 40.1899 61.6006 40.1899 61.3157V53.1643C40.1899 52.8794 40.4203 52.6489 40.7052 52.6489C40.9899 52.6489 41.2204 52.8794 41.2204 53.1643V61.3157C41.2204 61.6006 40.9899 61.8309 40.7052 61.8309Z" fill="#116FFF"/>
<path d="M40.7053 55.6479H25.2475C24.9628 55.6479 24.7324 55.4174 24.7324 55.1326C24.7324 54.8478 24.9628 54.6173 25.2475 54.6173H40.7053C40.9901 54.6173 41.2206 54.8478 41.2206 55.1326C41.2206 55.4174 40.9901 55.6479 40.7053 55.6479Z" fill="#116FFF"/>
<path d="M38.6443 63.892H27.3087C27.1718 63.892 27.041 63.8376 26.9444 63.741L24.8833 61.68C24.6821 61.4786 24.6821 61.1526 24.8833 60.9514C25.0847 60.75 25.4108 60.75 25.6119 60.9514L27.522 62.8614H38.431L40.341 60.9514C40.5424 60.75 40.8684 60.75 41.0696 60.9514C41.2708 61.1527 41.2709 61.4787 41.0696 61.68L39.0085 63.741C38.9121 63.8376 38.7812 63.892 38.6443 63.892Z" fill="#116FFF"/>
<path d="M24.2163 58.7394C23.9461 58.7394 23.7187 58.5279 23.7026 58.2542C23.6856 57.9704 23.9019 57.7269 24.1861 57.7098L41.7044 56.6793C42.0093 56.6642 42.2327 56.8795 42.2498 57.1633C42.2669 57.4471 42.0505 57.6907 41.7667 57.7078L24.2475 58.7383C24.2374 58.7394 24.2269 58.7394 24.2163 58.7394Z" fill="#116FFF"/>
<path d="M24.2163 60.8004C23.9461 60.8004 23.7187 60.5892 23.7026 60.3154C23.6856 60.0315 23.9019 59.788 24.1861 59.7709L41.7044 58.7404C42.0093 58.7272 42.2327 58.9407 42.2498 59.2244C42.2669 59.5083 42.0505 59.7518 41.7667 59.7689L24.2475 60.7994C24.2374 60.8004 24.2269 60.8004 24.2163 60.8004Z" fill="#116FFF"/>
<path d="M32.9763 65.9529C30.1148 65.9529 28.9564 63.7028 28.9086 63.6071C28.7812 63.3525 28.8843 63.0426 29.1389 62.9158C29.3946 62.791 29.7015 62.8916 29.8292 63.1442C29.8695 63.2226 30.7697 64.9225 32.9762 64.9225C35.2082 64.9225 36.113 63.1634 36.122 63.1463C36.2508 62.8916 36.5588 62.791 36.8134 62.9158C37.0681 63.0426 37.1706 63.3526 37.0439 63.6071C36.9958 63.7028 35.8383 65.9529 32.9763 65.9529Z" fill="#116FFF"/>
<path d="M30.4 53.5868C30.1152 53.5868 29.8848 53.3564 29.8848 53.0716V48.9494C29.8848 48.6647 30.1152 48.4342 30.4 48.4342C30.6849 48.4342 30.9152 48.6647 30.9152 48.9494V53.0716C30.9152 53.3564 30.6849 53.5868 30.4 53.5868Z" fill="#116FFF"/>
<path d="M35.5528 53.5868C35.2681 53.5868 35.0376 53.3564 35.0376 53.0716V48.9494C35.0376 48.6647 35.2681 48.4342 35.5528 48.4342C35.8376 48.4342 36.0681 48.6647 36.0681 48.9494V53.0716C36.0681 53.3564 35.8376 53.5868 35.5528 53.5868Z" fill="#116FFF"/>
<path d="M30.4006 49.4647C30.2491 49.4647 30.0997 49.3983 29.9976 49.2716C29.8199 49.0491 29.8561 48.7251 30.0781 48.547L32.6543 46.4859C32.8771 46.3078 33.2003 46.345 33.3788 46.5665C33.5566 46.789 33.5204 47.1129 33.2984 47.2911L30.7222 49.352C30.627 49.4286 30.5134 49.4647 30.4006 49.4647Z" fill="#116FFF"/>
<path d="M35.5525 49.4647C35.4388 49.4647 35.326 49.4286 35.2305 49.352L32.6541 47.2911C32.4323 47.1129 32.3961 46.7888 32.5737 46.5665C32.7529 46.345 33.0759 46.3088 33.2983 46.4859L35.8745 48.547C36.097 48.7251 36.1322 49.0492 35.955 49.2716C35.8533 49.3984 35.7034 49.4647 35.5525 49.4647Z" fill="#116FFF"/>
<path d="M30.4 47.4037C30.1152 47.4037 29.8848 47.1734 29.8848 46.8885V39.6749C29.8848 39.3901 30.1152 39.1597 30.4 39.1597C30.6849 39.1597 30.9152 39.3901 30.9152 39.6749V46.8885C30.9152 47.1734 30.6849 47.4037 30.4 47.4037Z" fill="#116FFF"/>
<path d="M30.4003 40.1901C30.1156 40.1901 29.8851 39.9596 29.8851 39.6749C29.8851 38.8226 29.1917 38.1292 28.3394 38.1292C27.487 38.1292 26.7937 38.8226 26.7937 39.6749C26.7937 39.9596 26.5632 40.1901 26.2784 40.1901C25.9935 40.1901 25.7632 39.9596 25.7632 39.6749C25.7632 38.254 26.919 37.0986 28.3394 37.0986C29.7598 37.0986 30.9156 38.254 30.9156 39.6749C30.9156 39.9596 30.6852 40.1901 30.4003 40.1901Z" fill="#116FFF"/>
<path d="M28.3389 42.2511C26.9183 42.2511 25.7627 41.0958 25.7627 39.6749C25.7627 39.3901 25.9931 39.1597 26.2779 39.1597C26.5627 39.1597 26.7932 39.3901 26.7932 39.6749C26.7932 40.5272 27.4866 41.2206 28.3389 41.2206C28.6238 41.2206 28.8541 41.4511 28.8541 41.7358C28.8541 42.0207 28.6238 42.2511 28.3389 42.2511Z" fill="#116FFF"/>
<path d="M35.5528 47.4037C35.2681 47.4037 35.0376 47.1734 35.0376 46.8885V39.6749C35.0376 39.3901 35.2681 39.1597 35.5528 39.1597C35.8376 39.1597 36.0681 39.3901 36.0681 39.6749V46.8885C36.0681 47.1734 35.8376 47.4037 35.5528 47.4037Z" fill="#116FFF"/>
<path d="M39.6749 40.1901C39.39 40.1901 39.1596 39.9596 39.1596 39.6749C39.1596 38.8226 38.4662 38.1292 37.6138 38.1292C36.7615 38.1292 36.0681 38.8226 36.0681 39.6749C36.0681 39.9596 35.8376 40.1901 35.5528 40.1901C35.2681 40.1901 35.0376 39.9596 35.0376 39.6749C35.0376 38.254 36.1929 37.0986 37.6138 37.0986C39.0347 37.0986 40.1901 38.254 40.1901 39.6749C40.1901 39.9596 39.9596 40.1901 39.6749 40.1901Z" fill="#116FFF"/>
<path d="M37.6139 42.2511C37.3291 42.2511 37.0986 42.0207 37.0986 41.7358C37.0986 41.4511 37.3291 41.2206 37.6139 41.2206C38.4663 41.2206 39.1597 40.5272 39.1597 39.6749C39.1597 39.3901 39.3901 39.1597 39.675 39.1597C39.9597 39.1597 40.1902 39.3901 40.1902 39.6749C40.1902 41.0958 39.0348 42.2511 37.6139 42.2511Z" fill="#116FFF"/>
<path d="M33.4916 42.2511H32.4612C32.1763 42.2511 31.9458 42.0207 31.9458 41.7358C31.9458 41.4511 32.1763 41.2206 32.4612 41.2206H33.4916C33.7764 41.2206 34.0069 41.4511 34.0069 41.7358C34.0069 42.0207 33.7764 42.2511 33.4916 42.2511Z" fill="#116FFF"/>
<path d="M32.9762 21.6408C32.6913 21.6408 32.4609 21.4103 32.4609 21.1255V19.0646C32.4609 18.7798 32.6913 18.5493 32.9762 18.5493C33.2609 18.5493 33.4914 18.7798 33.4914 19.0646V21.1255C33.4914 21.4104 33.2609 21.6408 32.9762 21.6408Z" fill="#116FFF"/>
<path d="M58.2239 39.1597C57.939 39.1597 57.7085 38.9292 57.7085 38.6444V31.4308C57.7085 31.1459 57.939 30.9156 58.2239 30.9156C58.5086 30.9156 58.739 31.1459 58.739 31.4308V38.6444C58.739 38.9292 58.5086 39.1597 58.2239 39.1597Z" fill="#116FFF"/>
<path d="M58.2241 39.1597H51.0104C50.7256 39.1597 50.4951 38.9292 50.4951 38.6444C50.4951 38.3597 50.7256 38.1292 51.0104 38.1292H58.2241C58.5088 38.1292 58.7392 38.3597 58.7392 38.6444C58.7392 38.9292 58.5088 39.1597 58.2241 39.1597Z" fill="#116FFF"/>
<path d="M7.72862 39.1597C7.44386 39.1597 7.21338 38.9292 7.21338 38.6444V31.4308C7.21338 31.1459 7.44386 30.9156 7.72862 30.9156C8.01337 30.9156 8.24386 31.1459 8.24386 31.4308V38.6444C8.24386 38.9292 8.01337 39.1597 7.72862 39.1597Z" fill="#116FFF"/>
<path d="M14.9422 39.1597H7.72862C7.44386 39.1597 7.21338 38.9292 7.21338 38.6444C7.21338 38.3597 7.44386 38.1292 7.72862 38.1292H14.9422C15.227 38.1292 15.4574 38.3597 15.4574 38.6444C15.4574 38.9292 15.227 39.1597 14.9422 39.1597Z" fill="#116FFF"/>
</svg>
