<svg width="66" height="66" viewBox="0 0 66 66" fill="none" xmlns="http://www.w3.org/2000/svg">
<path d="M45.9069 23.2392C45.9058 35.7659 35.7502 45.9216 23.2249 45.9216C10.6992 45.9216 0.542941 35.7649 0.543457 23.2392C0.544488 10.7125 10.6987 0.557776 23.2244 0.558807C35.7512 0.558807 45.9058 10.7135 45.9069 23.2392Z" fill="white"/>
<path d="M43.844 23.2392C43.845 34.6262 34.6115 43.8587 23.2249 43.8597C11.8384 43.8576 2.6065 34.6262 2.60547 23.2392C2.6065 11.8532 11.8385 2.61873 23.2249 2.6208C34.6115 2.6208 43.845 11.8532 43.844 23.2392Z" fill="#5C9EFF"/>
<path d="M5.69845 23.2382C5.69896 12.3756 14.1114 3.49156 24.7714 2.69917C24.259 2.66101 23.7475 2.62067 23.2249 2.62067C11.8385 2.61873 2.6065 11.8532 2.60547 23.2392C2.6065 34.6262 11.8384 43.8576 23.2249 43.8597C23.7475 43.8597 24.2594 43.8195 24.7723 43.7802C14.1104 42.9878 5.69896 34.1037 5.69845 23.2382Z" fill="#94C1FF"/>
<path d="M41.0881 37.4523L37.4443 41.096L43.2326 46.8851L46.8761 43.2404L41.0881 37.4523Z" fill="#D7E9FF"/>
<path d="M38.066 41.7173C39.4091 40.6379 40.6293 39.4157 41.7097 38.0726L41.0886 37.4523L37.4448 41.0961L38.066 41.7173Z" fill="#94C1FF"/>
<path d="M64.2209 59.126L47.6076 42.5116L42.5039 47.6141L59.1324 64.2425C59.1768 64.2929 59.21 64.3482 59.2584 64.3965C60.6759 65.8152 62.9745 65.8152 64.3921 64.3976C65.8096 62.98 65.8096 60.6815 64.3921 59.2649C64.3387 59.2115 64.2763 59.1743 64.2209 59.126Z" fill="#94C1FF"/>
<path d="M59.9871 63.6676C59.9387 63.6194 59.9055 63.5639 59.8613 63.5137L43.2329 46.8851L42.5039 47.6141L59.1324 64.2425C59.1768 64.2929 59.21 64.3482 59.2584 64.3965C60.6759 65.8151 62.9745 65.8151 64.3921 64.3976C64.517 64.2727 64.6175 64.1338 64.7192 63.9959C63.2985 65.0612 61.2808 64.9614 59.9871 63.6676Z" fill="#D7E9FF"/>
<path d="M63.657 59.9988C63.6088 59.9504 63.5534 59.9172 63.5021 59.873L46.8735 43.2435L47.6025 42.5147L64.2309 59.1441C64.2822 59.1885 64.3376 59.2207 64.386 59.2701C65.8035 60.6876 65.8035 62.9862 64.386 64.4037C64.2611 64.5287 64.1221 64.6292 63.9843 64.7309C65.0505 63.3092 64.9507 61.2916 63.657 59.9988Z" fill="#5C9EFF"/>
<path d="M38.0659 41.7173L42.5039 46.1563L43.2299 45.4304L38.8512 41.0507C38.5934 41.2772 38.3337 41.5028 38.0659 41.7173Z" fill="white"/>
<path d="M41.7094 38.0745L46.1486 42.5116L45.4226 43.2375L41.043 38.8589C41.2695 38.6011 41.4949 38.3412 41.7094 38.0745Z" fill="#94C1FF"/>
<rect x="46.8774" y="43.2388" width="5.15427" height="1.03085" transform="rotate(135 46.8774 43.2388)" fill="#94C1FF"/>
<path d="M37.626 23.198C37.626 31.1689 31.1643 37.6316 23.1929 37.6316C15.2215 37.6316 8.75928 31.1689 8.75928 23.198C8.75928 15.226 15.2215 8.76434 23.1929 8.76434C31.1643 8.76434 37.626 15.226 37.626 23.198Z" fill="#D7E9FF"/>
<path fill-rule="evenodd" clip-rule="evenodd" d="M6.78939 39.6009C11.1709 43.9824 16.9964 46.3959 23.1928 46.3959C29.3887 46.3959 35.2145 43.9824 39.5973 39.6009C43.9788 35.2192 46.3912 29.3938 46.3912 23.198C46.3912 17.0021 43.9768 11.1767 39.5953 6.79504C35.2136 2.41338 29.3887 0 23.1923 0C16.9959 0 11.1709 2.41338 6.78939 6.79504C-2.25532 15.8392 -2.25532 30.5567 6.78939 39.6009ZM7.51823 7.52387C11.7051 3.33764 17.2711 1.03099 23.1923 1.03099C29.1129 1.03099 34.6789 3.33751 38.8663 7.52387C43.0536 11.7102 45.3602 17.2769 45.3602 23.198C45.3602 29.119 43.0547 34.6847 38.8684 38.8721C34.6799 43.0582 29.1134 45.3649 23.1928 45.3649C17.2717 45.3649 11.705 43.0583 7.51823 38.8721C-1.12416 30.2295 -1.12416 16.1664 7.51823 7.52387Z" fill="#116FFF"/>
<path fill-rule="evenodd" clip-rule="evenodd" d="M8.24705 38.143C12.239 42.1339 17.5465 44.3319 23.1922 44.3319C28.8383 44.3319 34.1461 42.1339 38.1394 38.1431C46.376 29.9014 46.3749 16.4937 38.1373 8.25297C34.1452 4.2619 28.8383 2.06405 23.1932 2.06405C17.547 2.06405 12.239 4.2628 8.24705 8.2549C0.00684404 16.4946 0.00684404 29.9033 8.24705 38.143ZM8.97601 8.98386C12.7732 5.18616 17.8223 3.09504 23.1932 3.09504C28.5629 3.09504 33.6112 5.18603 37.4082 8.98193C45.2442 16.8199 45.2452 29.5751 37.4103 37.4141C33.6122 41.2098 28.5629 43.301 23.1922 43.301C17.8218 43.301 12.7732 41.2098 8.97601 37.4141C1.138 29.5761 1.138 16.8219 8.97601 8.98386Z" fill="#116FFF"/>
<path d="M43.2014 47.3653C43.0696 47.3653 42.9377 47.315 42.837 47.2144L38.1393 42.5166C37.9379 42.3153 37.9379 41.989 38.1393 41.7877C38.3406 41.5863 38.6669 41.5863 38.8681 41.7877L43.5659 46.4854C43.7672 46.6868 43.7672 47.013 43.5659 47.2144C43.4652 47.3152 43.3334 47.3653 43.2014 47.3653Z" fill="#116FFF"/>
<path d="M46.846 43.7227C46.7142 43.7227 46.5822 43.6723 46.4816 43.5717L41.7838 38.8719C41.5825 38.6706 41.5825 38.3442 41.7838 38.143C41.9852 37.9417 42.3114 37.9416 42.5127 38.143L47.2104 42.8428C47.4117 43.0441 47.4117 43.3704 47.2104 43.5717C47.1098 43.6724 46.9778 43.7227 46.846 43.7227Z" fill="#116FFF"/>
<path d="M42.4725 48.0963C42.3407 48.0963 42.2087 48.0459 42.108 47.9453C41.9067 47.7439 41.9067 47.4176 42.108 47.2164L47.2105 42.1138C47.4119 41.9124 47.7382 41.9124 47.9395 42.1138C48.1409 42.3151 48.1409 42.6415 47.9395 42.8428L42.837 47.9453C42.7363 48.0459 42.6045 48.0963 42.4725 48.0963Z" fill="#116FFF"/>
<path d="M64.3284 59.7482C64.1966 59.7482 64.0646 59.6978 63.964 59.5971L47.2106 42.8428C47.0092 42.6414 47.0092 42.3151 47.2106 42.1138C47.4119 41.9124 47.7382 41.9124 47.9395 42.1138L64.6929 58.8683C64.8942 59.0696 64.8942 59.3959 64.6929 59.5971C64.5922 59.6978 64.4603 59.7482 64.3284 59.7482Z" fill="#116FFF"/>
<path d="M59.2943 64.9171C59.1625 64.9171 59.0305 64.8667 58.9299 64.766L42.108 47.9453C41.9067 47.7439 41.9067 47.4177 42.108 47.2164C42.3094 47.0151 42.6357 47.0151 42.837 47.2164L59.6588 64.0371C59.8601 64.2385 59.8601 64.5648 59.6588 64.766C59.5581 64.8668 59.4262 64.9171 59.2943 64.9171Z" fill="#116FFF"/>
<path d="M61.8477 65.9763C60.7453 65.9763 59.7093 65.5463 58.929 64.766C58.7286 64.5646 58.7286 64.2384 58.93 64.0371C59.1314 63.8358 59.4575 63.8358 59.6589 64.0371C60.2439 64.623 61.021 64.9453 61.8476 64.9453C61.8486 64.9453 61.8486 64.9453 61.8486 64.9453C62.6743 64.9443 63.4495 64.623 64.0314 64.0392C64.6174 63.4542 64.9395 62.678 64.9395 61.8523C64.9395 61.0258 64.6174 60.2486 64.0324 59.6636C63.8311 59.4623 63.8311 59.136 64.0324 58.9348C64.2338 58.7334 64.5602 58.7334 64.7614 58.9348C65.5416 59.7151 65.9705 60.7511 65.9705 61.8524C65.9705 62.9539 65.5406 63.9889 64.7614 64.7682C63.9852 65.5464 62.9511 65.9754 61.8496 65.9764C61.8487 65.9763 61.8487 65.9763 61.8477 65.9763Z" fill="#116FFF"/>
<path d="M21.7364 25.1723C21.604 25.1723 21.472 25.1219 21.3713 25.0202C20.3691 24.0143 20.3691 22.3784 21.3713 21.3736C22.3772 20.3708 24.0138 20.3718 25.0195 21.3725C25.2212 21.5739 25.2223 21.9001 25.0216 22.1014C24.8216 22.3048 24.4955 22.3048 24.2926 22.1034C23.687 21.5014 22.7039 21.5034 22.1003 22.1024C21.4992 22.7056 21.4992 23.6882 22.1013 24.2933C22.3027 24.4946 22.3016 24.8209 22.1003 25.0223C21.9996 25.122 21.8677 25.1723 21.7364 25.1723Z" fill="#116FFF"/>
<path d="M20.2765 26.6311C20.1441 26.6311 20.0122 26.5809 19.9115 26.4791C18.1083 24.6699 18.1083 21.7239 19.9115 19.9147C21.7218 18.1085 24.6671 18.1106 26.4775 19.9127C26.6792 20.114 26.6803 20.4403 26.4796 20.6415C26.2796 20.8439 25.9525 20.8439 25.7506 20.6436C24.3401 19.24 22.048 19.24 20.6405 20.6436C19.238 22.0511 19.238 24.3427 20.6415 25.7521C20.8429 25.9535 20.842 26.2796 20.6405 26.4811C20.5397 26.5809 20.4078 26.6311 20.2765 26.6311Z" fill="#116FFF"/>
<path d="M18.8177 28.091C18.6854 28.091 18.5535 28.0406 18.4528 27.94C15.8452 25.3243 15.8452 21.0696 18.4528 18.4538C21.0669 15.8491 25.3212 15.8491 27.9364 18.4528C28.1383 18.6541 28.1393 18.9804 27.9385 19.1818C27.7387 19.3852 27.4115 19.3852 27.2095 19.1838C24.9936 16.9789 21.3926 16.9789 19.1818 19.1838C16.9759 21.3959 16.9759 24.9981 19.1828 27.2111C19.3838 27.4135 19.3838 27.7397 19.1818 27.9411C19.0811 28.0407 18.9497 28.091 18.8177 28.091Z" fill="#116FFF"/>
<path d="M17.3576 29.5509C17.2252 29.5509 17.0933 29.5006 16.9926 29.3999C13.5825 25.9798 13.5825 20.4151 16.9926 16.995C20.4097 13.5859 25.9739 13.5859 29.395 16.9929C29.5968 17.1943 29.5978 17.5205 29.397 17.7219C29.1972 17.9243 28.8699 17.9243 28.668 17.724C25.6487 14.7166 20.7379 14.7157 17.7215 17.724C14.7127 20.7414 14.7127 25.6536 17.7225 28.6709C17.9235 28.8733 17.9235 29.1996 17.7215 29.4009C17.6209 29.5006 17.4896 29.5509 17.3576 29.5509Z" fill="#116FFF"/>
<path d="M15.8978 31.0107C15.7654 31.0107 15.6335 30.9603 15.5328 30.8598C11.3198 26.6353 11.3198 19.7597 15.5328 15.5351C19.7539 11.3247 26.6268 11.3247 30.8549 15.5331C31.0568 15.7344 31.0578 16.0607 30.8569 16.262C30.6571 16.4653 30.33 16.4643 30.1281 16.2641C26.3008 12.4534 20.0812 12.4553 16.2618 16.2641C12.45 20.0869 12.45 26.308 16.2628 30.1308C16.4637 30.3332 16.4637 30.6594 16.2618 30.8608C16.1611 30.9604 16.0296 31.0107 15.8978 31.0107Z" fill="#116FFF"/>
<path d="M14.4388 32.4706C14.3065 32.4706 14.1746 32.4202 14.0739 32.3196C9.05804 27.2896 9.05804 19.1052 14.0739 14.0751C19.0989 9.06533 27.2807 9.0643 32.3138 14.0741C32.5156 14.2755 32.5167 14.6017 32.3158 14.8031C32.1154 15.0064 31.7882 15.0053 31.587 14.8051C26.9546 10.1939 19.4262 10.1939 14.8029 14.8051C10.1882 19.4324 10.1882 26.9624 14.8039 31.5907C15.0047 31.7931 15.0047 32.1193 14.8029 32.3207C14.7021 32.4203 14.5707 32.4706 14.4388 32.4706Z" fill="#116FFF"/>
<path d="M12.9794 33.9306C12.847 33.9306 12.7151 33.8802 12.6143 33.7795C6.79653 27.9451 6.79653 18.4509 12.6143 12.6154C18.4439 6.80212 27.9355 6.80212 33.773 12.6133C33.9749 12.8147 33.9759 13.1408 33.7751 13.3423C33.5747 13.5457 33.2474 13.5447 33.0462 13.3444C27.6093 7.93379 18.7711 7.93173 13.3434 13.3444C7.92665 18.7771 7.92665 27.6179 13.3444 33.0507C13.5453 33.253 13.5453 33.5793 13.3434 33.7805C13.2426 33.8802 13.1113 33.9306 12.9794 33.9306Z" fill="#116FFF"/>
<path d="M19.6868 37.7181C19.5549 37.7181 19.423 37.6677 19.3224 37.567L14.0748 32.3195C13.8735 32.1182 13.8735 31.7919 14.0748 31.5905C14.2762 31.3892 14.6025 31.3892 14.8038 31.5905L20.0513 36.8381C20.2527 37.0394 20.2527 37.3657 20.0513 37.5669C19.9505 37.6678 19.8186 37.7181 19.6868 37.7181Z" fill="#116FFF"/>
<path d="M22.9525 38.0665C22.8207 38.0665 22.6888 38.0161 22.5881 37.9156L15.5333 30.8598C15.332 30.6584 15.332 30.3323 15.5333 30.1308C15.7347 29.9295 16.061 29.9295 16.2623 30.1308L23.3171 37.1865C23.5184 37.3878 23.5184 37.7141 23.3171 37.9155C23.2164 38.0161 23.0845 38.0665 22.9525 38.0665Z" fill="#116FFF"/>
<path d="M25.7303 37.9236C25.5984 37.9236 25.4666 37.8732 25.3659 37.7725L16.9933 29.3999C16.7919 29.1986 16.7919 28.8723 16.9933 28.6709C17.1947 28.4696 17.5209 28.4696 17.7221 28.6709L26.0949 37.0435C26.2962 37.2449 26.2962 37.5711 26.0949 37.7725C25.9942 37.8732 25.8623 37.9236 25.7303 37.9236Z" fill="#116FFF"/>
<path d="M28.041 37.3135C27.9092 37.3135 27.7773 37.2631 27.6766 37.1624L18.4533 27.94C18.2519 27.7387 18.2519 27.4124 18.4533 27.2111C18.6546 27.0097 18.9809 27.0097 19.1821 27.2111L28.4055 36.4335C28.6068 36.6349 28.6068 36.9612 28.4055 37.1624C28.3049 37.2631 28.173 37.3135 28.041 37.3135Z" fill="#116FFF"/>
<path d="M30.0649 36.4174C29.933 36.4174 29.8012 36.367 29.7005 36.2664L19.9122 26.4802C19.7109 26.2788 19.7109 25.9526 19.9122 25.7512C20.1136 25.5499 20.4397 25.5499 20.6411 25.7512L30.4293 35.5374C30.6307 35.7387 30.6307 36.0651 30.4293 36.2664C30.3288 36.367 30.1969 36.4174 30.0649 36.4174Z" fill="#116FFF"/>
<path d="M31.846 35.2806C31.7141 35.2806 31.5822 35.2302 31.4815 35.1297L21.3722 25.0212C21.1709 24.8199 21.1709 24.4936 21.3722 24.2922C21.5736 24.0909 21.8998 24.0909 22.1012 24.2922L32.2105 34.4007C32.4119 34.602 32.4119 34.9283 32.2105 35.1297C32.1098 35.2303 31.9778 35.2806 31.846 35.2806Z" fill="#116FFF"/>
<path d="M34.7645 32.3619C34.6326 32.3619 34.5008 32.3116 34.4001 32.211L24.2916 22.1025C24.0903 21.9012 24.0903 21.5749 24.2916 21.3737C24.493 21.1723 24.8193 21.1723 25.0206 21.3737L35.1289 31.482C35.3303 31.6833 35.3303 32.0096 35.1289 32.211C35.0282 32.3115 34.8965 32.3619 34.7645 32.3619Z" fill="#116FFF"/>
<path d="M35.9023 30.5808C35.7706 30.5808 35.6386 30.5304 35.5379 30.4299L25.7496 20.6427C25.5483 20.4413 25.5483 20.1152 25.7496 19.9138C25.951 19.7125 26.2773 19.7125 26.4786 19.9138L36.2668 29.701C36.4682 29.9024 36.4682 30.2287 36.2668 30.43C36.1662 30.5306 36.0343 30.5808 35.9023 30.5808Z" fill="#116FFF"/>
<path d="M36.8001 28.5623C36.6682 28.5623 36.5362 28.5119 36.4356 28.4113L27.2081 19.1829C27.0068 18.9816 27.0068 18.6553 27.2081 18.454C27.4095 18.2526 27.7358 18.2526 27.9371 18.454L37.1646 27.6824C37.366 27.8837 37.366 28.21 37.1646 28.4113C37.0638 28.5119 36.9319 28.5623 36.8001 28.5623Z" fill="#116FFF"/>
<path d="M37.4062 26.2475C37.2745 26.2475 37.1425 26.1971 37.0418 26.0966L28.6671 17.7229C28.4658 17.5216 28.4658 17.1955 28.6671 16.994C28.8685 16.7926 29.1947 16.7926 29.3961 16.994L37.7706 25.3676C37.972 25.5689 37.972 25.8952 37.7706 26.0966C37.6701 26.1972 37.5382 26.2475 37.4062 26.2475Z" fill="#116FFF"/>
<path d="M37.6298 23.5513C37.4979 23.5513 37.3661 23.5009 37.2654 23.4004L30.1271 16.2631C29.9257 16.0617 29.9257 15.7355 30.1271 15.5341C30.3284 15.3328 30.6547 15.3328 30.8559 15.5341L37.9942 22.6714C38.1956 22.8727 38.1956 23.199 37.9942 23.4004C37.8936 23.5009 37.7616 23.5513 37.6298 23.5513Z" fill="#116FFF"/>
<path d="M37.2071 20.2258C37.0742 20.2258 36.9422 20.1754 36.8415 20.0748L31.5857 14.8042C31.3847 14.6019 31.3847 14.2756 31.5867 14.0742C31.7884 13.8739 32.1147 13.875 32.3155 14.0753L37.5715 19.346C37.7729 19.5484 37.7729 19.8746 37.5705 20.076C37.4698 20.1754 37.339 20.2258 37.2071 20.2258Z" fill="#116FFF"/>
<path d="M33.4032 33.9174C33.2713 33.9174 33.1393 33.867 33.0387 33.7663L22.8317 23.5593C22.6303 23.3579 22.6303 23.0317 22.8317 22.8305C23.033 22.6291 23.3592 22.6291 23.5606 22.8305L33.7677 33.0375C33.969 33.2389 33.969 33.5651 33.7677 33.7663C33.6669 33.867 33.535 33.9174 33.4032 33.9174Z" fill="#116FFF"/>
<path d="M15.894 36.8463C15.7621 36.8463 15.6303 36.7959 15.5296 36.6952L12.6149 33.7795C12.4135 33.5781 12.4135 33.252 12.6149 33.0507C12.8162 32.8493 13.1425 32.8493 13.3438 33.0507L16.2585 35.9664C16.4599 36.1677 16.4599 36.4939 16.2585 36.6952C16.1579 36.7959 16.0259 36.8463 15.894 36.8463Z" fill="#116FFF"/>
<path d="M36.3273 16.412C36.1954 16.412 36.0634 16.3617 35.9627 16.261L33.0451 13.3432C32.8437 13.1419 32.8437 12.8156 33.0451 12.6142C33.2464 12.4129 33.5727 12.4129 33.7739 12.6142L36.6917 15.5319C36.893 15.7333 36.893 16.0595 36.6917 16.2609C36.591 16.3617 36.4591 16.412 36.3273 16.412Z" fill="#116FFF"/>
</svg>
