<svg width="58" height="66" viewBox="0 0 58 66" fill="none" xmlns="http://www.w3.org/2000/svg">
<path d="M43.5835 3.51012C27.3283 -4.9705 2.35483 5.17262 7.21449 26.4028L0.509766 38.6478L4.57714 40.7087L3.7827 46.2799L4.93265 47.4393L4.25941 48.9528L5.59392 49.9834C3.56036 56.1664 4.30902 60.2986 19.8294 58.2275V65.4411H48.3004C48.3004 65.4411 45.3908 51.1326 49.6388 45.0543C53.8868 38.9779 67.743 16.1159 43.5835 3.51012Z" fill="#D7E9FF"/>
<path d="M17.7955 58.2276C15.5295 58.5295 13.5872 58.6966 11.9141 58.7468C13.5271 58.8033 15.4724 58.7167 17.7955 58.4692V58.2276Z" fill="#94C1FF"/>
<path d="M43.5835 3.51012C39.424 1.33985 34.6934 0.396519 30.0371 0.539476C34.0231 0.691456 37.9949 1.65555 41.5499 3.51025C65.7093 16.116 51.8531 38.978 47.6051 45.0544C43.3571 51.1327 46.2666 65.4412 46.2666 65.4412H48.3002C48.3002 65.4412 45.3907 51.1327 49.6387 45.0544C53.8868 38.9779 67.743 16.1159 43.5835 3.51012Z" fill="#94C1FF"/>
<path d="M7.62748 49.9835L6.29285 48.9529L6.96608 47.4394L5.81626 46.2801L6.61058 40.7089L2.54333 38.6479L9.24792 26.403C5.63208 10.606 18.534 0.95507 32.0709 0.539476C17.8319 -0.00347739 3.41778 9.81596 7.21449 26.4028L0.509766 38.6478L4.57714 40.7087L3.7827 46.2799L4.93265 47.4393L4.25941 48.9528L5.59392 49.9834C3.85723 55.2628 4.15804 59.0446 13.948 58.7467C6.15841 58.4732 6.01989 54.8704 7.62748 49.9835Z" fill="white"/>
<path d="M19.8291 58.4692V65.4412H21.8628V58.2276C21.1509 58.3221 20.4801 58.3997 19.8291 58.4692Z" fill="white"/>
<path d="M47.2931 27.7972L37.6353 31.1851C37.6353 31.1851 40.6322 36.7367 44.741 35.5562C45.0329 35.4718 45.3507 35.3812 45.6764 35.2363C46.1342 35.041 46.4866 34.7633 46.8054 34.5257C48.8719 32.9795 47.2931 27.7972 47.2931 27.7972Z" fill="#5C9EFF"/>
<path d="M27.9634 33.4947H32.0307L20.8457 42.7698L25.9297 35.5562H21.8625L28.4718 28.8207L31.2016 30.2567L27.9634 33.4947Z" fill="#FFCE54"/>
<path d="M27.9634 33.4947H32.0307L20.8457 42.7698L25.9297 35.5562H21.8625L28.4718 28.8207L29.1611 28.152L31.2016 30.2567L27.9634 33.4947Z" fill="#5C9EFF"/>
<path d="M20.4974 16.3467C20.9144 12.5443 24.087 9.5972 27.9612 9.5972C28.4998 9.5972 30.0291 11.8475 30.5375 11.9505L38.0812 11.2355C44.5823 9.79288 47.2932 13.3791 47.2932 16.3467C47.2932 16.8826 47.033 17.798 46.901 18.2825C48.3755 19.3025 49.5205 20.8015 49.5205 22.7387C49.5205 22.9862 49.459 23.8447 49.4281 24.0922C49.4281 24.0922 49.2553 26.6997 45.6159 29.1472C41.9767 31.5947 35.0685 30.3313 33.6952 28.4759C32.3229 29.187 24.6053 28.414 23.243 27.0233V27.0127C21.7479 27.0846 20.2332 26.5286 19.0843 25.3637C16.9081 23.1588 16.9081 19.5927 19.0843 17.3878C19.5112 16.9552 19.9889 16.6044 20.4974 16.3467Z" fill="#EC87C0"/>
<path d="M20.4974 16.3467C20.9144 12.5443 24.087 9.5972 27.9612 9.5972C28.4998 9.5972 30.0291 11.8475 30.5375 11.9505L38.0812 11.2355C44.5823 9.79288 47.2932 13.3791 47.2932 16.3467C47.2932 16.8826 47.033 17.798 46.901 18.2825C48.3755 19.3025 49.5205 20.8015 49.5205 22.7387C49.5205 22.9862 49.459 23.8447 49.4281 24.0922C49.4281 24.0922 49.2553 26.6997 45.6159 29.1472C41.9767 31.5947 35.0685 30.3313 33.6952 28.4759C32.3229 29.187 24.6053 28.414 23.243 27.0233V27.0127C21.7479 27.0846 20.2332 26.5286 19.0843 25.3637C16.9081 23.1588 16.9081 19.5927 19.0843 17.3878C19.5112 16.9552 19.9889 16.6044 20.4974 16.3467Z" fill="#5C9EFF"/>
<path d="M46.9007 18.2825C47.0328 17.798 47.293 16.8827 47.293 16.3467C47.293 13.6617 45.0637 10.4842 39.8266 10.9682C43.6109 11.3699 45.2593 14.0397 45.2593 16.3467C45.2593 16.8826 44.9992 17.798 44.8672 18.2825C46.3417 19.3026 47.4866 20.8015 47.4866 22.7387C47.4866 22.9862 47.4252 23.8447 47.3942 24.0922C47.3942 24.0922 47.2215 26.6997 43.5821 29.1473C42.3976 29.9443 40.8643 30.3427 39.2905 30.46C41.5158 30.616 43.9198 30.2879 45.6157 29.1473C49.255 26.6997 49.4278 24.0922 49.4278 24.0922C49.4586 23.8447 49.5203 22.9862 49.5203 22.7387C49.5203 20.8015 48.3753 19.3026 46.9007 18.2825Z" fill="#2287FF"/>
<path d="M16.1482 16.3467C16.5653 12.5443 19.7379 9.59707 23.6121 9.59707C24.1507 9.59707 24.6692 9.64837 25.1776 9.75163L25.188 9.7622C26.5404 7.90698 28.7265 6.70132 31.208 6.70132C34.2783 6.70132 36.9217 8.55602 38.0814 11.2355C40.9383 11.4831 43.1755 13.8943 43.1755 16.862C43.1755 17.3978 43.104 17.9131 42.9719 18.3978C44.4465 19.4178 45.4026 21.1285 45.4026 23.0657C45.4026 23.3133 45.3818 23.5603 45.351 23.8079C45.351 23.8079 47.3648 27.3217 45.4225 29.8467C42.8298 33.227 38.7218 30.7432 38.7218 30.7432C37.7148 31.248 36.576 31.5368 35.3764 31.5368C32.9058 31.5368 30.7194 30.3311 29.3464 28.4759C27.9738 29.1869 25.7877 29.28 24.242 29.28C22.1473 29.28 20.2562 28.414 18.8938 27.0233V27.0127C17.3988 27.0846 15.8841 26.5286 14.7351 25.3637C12.559 23.1588 12.559 19.5927 14.7351 17.3878C15.1621 16.9552 15.6397 16.6044 16.1482 16.3467Z" fill="#94C1FF"/>
<path d="M45.3508 23.8079C45.3816 23.5603 45.4025 23.3133 45.4025 23.0657C45.4025 21.1285 44.4462 19.4177 42.9717 18.3978C43.1038 17.9132 43.1753 17.398 43.1753 16.862C43.1753 13.8943 40.9381 11.483 38.0812 11.2355C36.9215 8.55602 34.2782 6.70132 31.2079 6.70132C30.8583 6.70132 30.5177 6.73097 30.1812 6.77673C32.8135 7.13302 35.017 8.85495 36.0477 11.2353C38.9046 11.483 41.1418 13.8942 41.1418 16.8618C41.1418 17.3977 41.0703 17.9129 40.9381 18.3976C42.4128 19.4177 43.3689 21.1284 43.3689 23.0656C43.3689 23.3132 43.348 23.5602 43.3173 23.8078C43.3173 23.8078 45.3311 27.3215 43.3887 29.8466C42.623 30.8448 41.7256 31.3233 40.8407 31.5141C42.2319 31.7799 44.0401 31.6485 45.4223 29.8466C47.3647 27.3217 45.3508 23.8079 45.3508 23.8079Z" fill="#5C9EFF"/>
<path d="M20.9274 27.0234V27.0128C19.4325 27.0847 17.9176 26.5288 16.7688 25.3639C14.5927 23.1589 14.5927 19.5928 16.7688 17.3879C17.1958 16.9553 17.6734 16.6045 18.1818 16.3469C18.5621 12.8785 21.2381 10.1291 24.6451 9.67171C24.307 9.62736 23.9649 9.5972 23.6119 9.5972C19.7379 9.5972 16.5652 12.5444 16.1481 16.3469C15.6396 16.6045 15.1621 16.9553 14.7351 17.3879C12.559 19.5928 12.559 23.1589 14.7351 25.3639C15.8841 26.5288 17.3988 27.0847 18.8938 27.0128V27.0234C20.2562 28.4142 22.1473 29.2802 24.242 29.2802C24.6651 29.2802 25.1372 29.2711 25.6263 29.2469C23.7922 29.0878 22.1473 28.2688 20.9274 27.0234Z" fill="#D7E9FF"/>
<path d="M45.8595 35.1477L43.8169 35.7212C43.8169 35.7212 45.0591 39.4739 44.1604 43.8003H46.194C47.2109 39.163 45.8595 35.1477 45.8595 35.1477Z" fill="#5C9EFF"/>
<path d="M29.8654 29.4531L29.1609 28.152L28.4721 28.8207L21.8628 35.5562H24.1085L29.8654 29.4531Z" fill="#D7E9FF"/>
<path d="M20.8457 42.7698L25.9297 35.5562H27.4976L20.8457 42.7698Z" fill="#D7E9FF"/>
<path d="M18.6365 27.5341C17.0577 27.5346 15.5166 26.8849 14.3756 25.7281C13.2271 24.5644 12.5947 23.019 12.5947 21.3761C12.5947 19.7327 13.2273 18.1875 14.3756 17.0236C14.8398 16.5531 15.3596 16.1701 15.9207 15.8859C16.1709 15.7596 16.4768 15.8617 16.6028 16.1164C16.7284 16.371 16.6267 16.6803 16.3754 16.8078C15.9122 17.0422 15.4812 17.3603 15.0945 17.7522C14.1382 18.7214 13.6114 20.0084 13.6114 21.3761C13.6114 22.7432 14.1382 24.0304 15.0945 24.9994C16.1004 26.0184 17.4811 26.5573 18.8693 26.498C20.1427 26.4496 21.3398 25.9178 22.2454 24.9994C22.4439 24.7981 22.7657 24.7981 22.9643 24.9994C23.1629 25.2008 23.1629 25.5268 22.9643 25.728C21.877 26.8305 20.4382 27.4695 18.9124 27.5274C18.8208 27.5321 18.7285 27.5341 18.6365 27.5341Z" fill="#116FFF"/>
<path d="M44.8537 26.0441C44.7791 26.0441 44.7046 26.028 44.6332 25.9933C44.38 25.8699 44.2738 25.5621 44.3959 25.3055C44.6322 24.8058 44.7842 24.2814 44.8458 23.7476C44.8745 23.5177 44.8944 23.2918 44.8944 23.0658C44.8944 21.3661 44.0682 19.7801 42.685 18.8235C41.841 18.2494 40.8519 17.9445 39.8302 17.9445C39.5492 17.9445 39.3218 17.714 39.3218 17.4293C39.3218 17.1445 39.5492 16.914 39.8302 16.914C41.0545 16.914 42.2391 17.2794 43.2551 17.9702C44.9193 19.1209 45.9114 21.0255 45.9114 23.0658C45.9114 23.335 45.8895 23.6033 45.8557 23.8724C45.7811 24.5155 45.5985 25.149 45.3115 25.7522C45.2239 25.9365 45.0422 26.0441 44.8537 26.0441Z" fill="#116FFF"/>
<path d="M42.9716 18.9131C42.9269 18.9131 42.8813 18.9071 42.8366 18.8944C42.5654 18.8184 42.4067 18.5347 42.4811 18.2605C42.6042 17.8096 42.6668 17.3392 42.6668 16.8621C42.6668 14.1757 40.6768 11.9777 38.0374 11.7488C37.7584 11.7247 37.5509 11.4751 37.5746 11.1918C37.5994 10.9079 37.8567 10.6986 38.1247 10.7223C41.2933 10.997 43.6834 13.6362 43.6834 16.8621C43.6834 17.4317 43.6089 17.9948 43.4621 18.5352C43.3996 18.7636 43.1951 18.9131 42.9716 18.9131Z" fill="#116FFF"/>
<path d="M24.2419 29.7954C22.0822 29.7954 20.0545 28.94 18.5328 27.3863C18.3351 27.1845 18.3361 26.8584 18.5357 26.6577C18.7337 26.4574 19.0565 26.4574 19.2546 26.6606C20.5837 28.0176 22.3552 28.7649 24.2418 28.7649C25.0898 28.7649 27.6716 28.7649 29.1148 28.0171C29.2722 27.9331 29.4187 27.848 29.5473 27.7438C29.7676 27.5663 30.0873 27.603 30.2621 27.8248C30.4379 28.0473 30.4011 28.3712 30.1827 28.5489C30.0051 28.6922 29.8064 28.8125 29.5829 28.9318C28.0883 29.7063 25.8193 29.7954 24.2419 29.7954Z" fill="#116FFF"/>
<path d="M38.7216 14.8322C38.4405 14.8322 38.2132 14.6017 38.2132 14.317C38.2132 13.3016 38.0127 12.3359 37.6173 11.4473C36.5043 8.87545 33.989 7.21656 31.2076 7.21656C28.963 7.21656 26.9179 8.25606 25.5967 10.0681C24.6752 11.2899 24.1911 12.7571 24.1911 14.317C24.1911 14.6017 23.9637 14.8322 23.6827 14.8322C23.4017 14.8322 23.1743 14.6017 23.1743 14.317C23.1743 12.5287 23.7309 10.8455 24.7834 9.44908C26.2713 7.40824 28.6744 6.18608 31.2076 6.18608C34.3921 6.18608 37.2737 8.08706 38.5467 11.0287C38.9995 12.0467 39.2299 13.1546 39.2299 14.317C39.23 14.6017 39.0026 14.8322 38.7216 14.8322Z" fill="#116FFF"/>
<path d="M35.3763 32.052C32.8222 32.052 30.4759 30.8616 28.9398 28.7849C28.771 28.5574 28.8167 28.2343 29.0415 28.0638C29.265 27.8927 29.5852 27.939 29.7531 28.1669C31.0956 29.9809 33.1452 31.0215 35.3764 31.0215C36.4518 31.0215 37.5303 30.7654 38.4963 30.2814C38.7445 30.1576 39.0534 30.2582 39.1774 30.5149C39.3016 30.77 39.1983 31.079 38.9471 31.2052C37.8419 31.7593 36.6066 32.052 35.3763 32.052Z" fill="#116FFF"/>
<path d="M16.7178 20.7576C16.5217 20.7576 16.3345 20.642 16.2516 20.4472C15.8122 19.4202 15.5894 18.3324 15.5894 17.2127C15.5894 16.9058 15.6106 16.5994 15.6429 16.2925C16.0938 12.1805 19.5196 9.08183 23.6122 9.08183C24.1871 9.08183 24.7317 9.13559 25.2774 9.24632C25.553 9.30213 25.7311 9.57348 25.6761 9.85269C25.6209 10.1324 25.3524 10.3131 25.0778 10.2568C24.5987 10.1596 24.119 10.1123 23.6122 10.1123C20.0384 10.1123 17.047 12.8169 16.6538 16.4036C16.6256 16.6718 16.6061 16.942 16.6061 17.2126C16.6061 18.1903 16.8007 19.1404 17.1845 20.0374C17.2958 20.2986 17.1775 20.6021 16.9198 20.7152C16.8543 20.7441 16.7854 20.7576 16.7178 20.7576Z" fill="#116FFF"/>
<path d="M48.4122 26.982C48.307 26.982 48.2007 26.9493 48.1104 26.8813C47.884 26.7122 47.8363 26.3897 48.003 26.1608C48.6634 25.2551 49.0121 24.1848 49.0121 23.0657C49.0121 20.8079 47.5871 18.844 45.4661 18.1789C45.1981 18.0948 45.047 17.8065 45.1304 17.5343C45.2128 17.2626 45.4987 17.1092 45.7659 17.1947C48.3159 17.9943 50.0289 20.3537 50.0289 23.0657C50.0289 24.4067 49.6108 25.6888 48.8214 26.7727C48.7211 26.9096 48.5682 26.982 48.4122 26.982Z" fill="#116FFF"/>
<path d="M47.0897 18.9131C47.045 18.9131 46.9994 18.9071 46.9538 18.8944C46.6827 18.8179 46.5248 18.5336 46.6004 18.2594C46.7225 17.8127 46.7849 17.3427 46.7849 16.8621C46.7849 14.6089 45.3629 12.6404 43.246 11.9642C42.9779 11.8786 42.83 11.5888 42.9143 11.3176C42.9988 11.0464 43.2857 10.8974 43.5519 10.981C46.0939 11.7936 47.8018 14.1571 47.8018 16.8621C47.8018 17.4357 47.7274 17.9993 47.5795 18.5362C47.5167 18.7641 47.3121 18.9131 47.0897 18.9131Z" fill="#116FFF"/>
<path d="M43.3987 36.2576C40.4018 36.2576 38.9233 33.5872 38.9065 33.5561C38.7714 33.3069 38.8617 32.995 39.108 32.8581C39.3543 32.7199 39.662 32.8128 39.7981 33.0605C39.8617 33.1776 41.4018 35.9224 44.6112 35.057C44.9101 34.9845 45.1962 34.8869 45.4731 34.7642C45.8604 34.5982 46.193 34.3888 46.4661 34.1412C47.9168 32.827 47.2477 30.7392 47.2188 30.6507C47.1294 30.3815 47.2725 30.0892 47.5375 29.9986C47.8016 29.9069 48.0907 30.0493 48.181 30.319C48.2198 30.4332 49.1025 33.1359 47.1444 34.909C46.7879 35.234 46.36 35.5038 45.8745 35.711C45.5498 35.855 45.2062 35.9727 44.8606 36.0573C44.338 36.1964 43.8515 36.2576 43.3987 36.2576Z" fill="#116FFF"/>
<path d="M44.2337 44.3156C44.2069 44.3156 44.179 44.3136 44.1523 44.3085C43.8741 44.2632 43.6865 43.9997 43.7312 43.7178C44.3755 39.6561 43.7601 37.8083 43.7541 37.7904C43.6616 37.5227 43.7988 37.2289 44.0619 37.1331C44.3269 37.0386 44.6159 37.1754 44.7103 37.4402C44.7401 37.5227 45.4292 39.5132 44.7342 43.8819C44.6944 44.1345 44.4789 44.3156 44.2337 44.3156Z" fill="#116FFF"/>
<path d="M46.2664 44.3156C46.2308 44.3156 46.193 44.3117 46.1562 44.3035C45.8822 44.2411 45.7093 43.9654 45.7699 43.6876C46.7342 39.2909 45.8038 36.8 45.7938 36.7759C45.6916 36.5123 45.8197 36.2125 46.0798 36.1077C46.339 36.003 46.6338 36.1319 46.7383 36.3954C46.7829 36.5061 47.8016 39.1731 46.7629 43.911C46.7103 44.1515 46.4998 44.3156 46.2664 44.3156Z" fill="#116FFF"/>
<path d="M46.4926 35.0651C45.2185 35.0651 44.5871 34.0407 44.4242 33.4468C44.3486 33.1731 44.5066 32.8888 44.7776 32.8123C45.0506 32.7373 45.3258 32.8953 45.4021 33.1676C45.4519 33.3362 45.7447 34.1714 46.7298 34.0154C47.0048 33.9806 47.266 34.1663 47.3076 34.4492C47.3493 34.731 47.1577 34.9925 46.8808 35.0348C46.7448 35.055 46.6157 35.0651 46.4926 35.0651Z" fill="#116FFF"/>
<path d="M44.7611 36.0714C44.7272 36.0714 44.6736 36.0675 44.641 36.0614C42.6321 35.6508 42.2121 34.071 42.1952 34.0034C42.1256 33.7277 42.2894 33.4474 42.5616 33.377C42.8346 33.3046 43.1078 33.471 43.1792 33.7439C43.193 33.7947 43.4849 34.7744 44.8414 35.0512C45.1224 35.0512 45.3091 35.2766 45.3091 35.5603C45.3093 35.8461 45.042 36.0714 44.7611 36.0714Z" fill="#116FFF"/>
<path d="M20.8459 43.2852C20.7207 43.2852 20.5957 43.2379 20.4984 43.1452C20.3122 42.9691 20.2839 42.6793 20.4324 42.47L24.942 36.0714H21.8628C21.6572 36.0714 21.4715 35.9456 21.3931 35.7534C21.3142 35.5602 21.3578 35.3387 21.5033 35.1921L25.5706 31.0695C25.7693 30.8681 26.0909 30.8681 26.2895 31.0695C26.488 31.2709 26.4882 31.5969 26.2895 31.7981L23.0901 35.041H25.93C26.1207 35.041 26.2949 35.1477 26.3818 35.3198C26.4692 35.4919 26.4543 35.6981 26.3437 35.8551L23.4784 39.9207L30.607 34.0104H27.9637C27.7592 34.0104 27.5745 33.8856 27.495 33.6949C27.4156 33.5038 27.4569 33.2833 27.5998 33.1348L29.634 31.0224C29.8296 30.8186 30.1523 30.8157 30.3529 31.0134C30.5535 31.2122 30.5574 31.5382 30.3608 31.742L29.1703 32.9794H32.031C32.2455 32.9794 32.4371 33.1163 32.5096 33.3215C32.5821 33.5263 32.5195 33.7553 32.3528 33.8936L21.1678 43.1681C21.0738 43.2459 20.9596 43.2852 20.8459 43.2852Z" fill="#116FFF"/>
<path d="M41.8606 32.1362C40.5031 32.1362 39.2361 31.6542 38.4615 31.1856C38.2203 31.0402 38.1417 30.7248 38.2847 30.4801C38.4277 30.2361 38.7404 30.1556 38.9817 30.3004C39.1327 30.3911 42.7392 32.5035 45.021 29.5306C46.733 27.305 44.9296 24.0988 44.9108 24.0665C44.7699 23.8205 44.8523 23.5055 45.0955 23.3626C45.3359 23.2201 45.6487 23.3017 45.7906 23.5492C45.88 23.7047 47.9524 27.3955 45.8234 30.1635C44.6855 31.6476 43.227 32.1362 41.8606 32.1362Z" fill="#116FFF"/>
<path fill-rule="evenodd" clip-rule="evenodd" d="M19.8291 65.9564H48.3001C48.453 65.9564 48.598 65.8859 48.6941 65.7662C48.7904 65.6464 48.8291 65.4885 48.7974 65.3364L48.7971 65.3349C48.7543 65.1185 45.9924 51.1689 50.0575 45.3541C53.1337 40.9423 60.0041 29.501 57.3649 18.5638C55.8177 12.1553 51.259 6.93477 43.8146 3.04876C39.9916 1.0542 35.542 0 30.9465 0C22.5785 0 14.6112 3.53242 10.1538 9.21783C6.44392 13.9501 5.24093 19.8625 6.67134 26.3274L0.0650681 38.3972C-0.00247137 38.5199 -0.0173529 38.6659 0.0238576 38.7998C0.0646865 38.9336 0.157919 39.0453 0.282059 39.1086L4.02115 41.0025L3.28038 46.2095C3.25761 46.3716 3.31167 46.5345 3.42589 46.6492L4.32451 47.552L3.7978 48.7415C3.70101 48.959 3.76549 49.2167 3.95323 49.3616L4.99837 50.1706C4.27147 52.4652 3.77452 54.991 5.06286 56.8025C6.77284 59.2068 11.2666 59.8298 19.3207 58.8133V65.4412C19.3207 65.7249 19.5481 65.9564 19.8291 65.9564ZM47.6855 64.926H20.3376H20.3375V58.2276C20.3375 58.0786 20.2745 57.9377 20.1642 57.8391C20.0546 57.7415 19.9096 57.6962 19.7627 57.7164C11.8589 58.77 7.36811 58.2808 5.88809 56.2007C5.02369 54.985 5.07978 53.1736 6.0757 50.1463C6.14477 49.9371 6.07468 49.7077 5.90195 49.5728L4.89064 48.7909L5.39662 47.6488C5.48362 47.4526 5.44139 47.2221 5.29092 47.0711L4.32374 46.1011L5.08041 40.7814C5.11132 40.562 5.00054 40.3466 4.80441 40.248L1.21171 38.4264L7.65467 26.6551C7.71573 26.5433 7.73417 26.413 7.7058 26.2888C6.28086 20.0654 7.40296 14.384 10.9504 9.85888C15.2193 4.41349 22.8817 1.03061 30.9468 1.03061C35.3815 1.03061 39.67 2.04548 43.3501 3.96464C50.5195 7.70834 54.9025 12.7029 56.3771 18.809C58.9182 29.3339 52.2235 40.4634 49.2276 44.7595C45.3599 50.2915 47.1701 62.0599 47.6855 64.926Z" fill="#116FFF"/>
</svg>
