<svg width="60" height="66" viewBox="0 0 60 66" fill="none" xmlns="http://www.w3.org/2000/svg">
<path d="M53.0729 30.0834C53.0779 30.0789 53.0829 30.0749 53.0879 30.0704C58.6685 24.4343 58.6685 15.2972 53.0879 9.66166C47.5063 4.02613 38.4576 4.02613 32.8772 9.66166L24.2151 18.4077V18.4082C22.6565 19.982 21.5494 21.8331 20.8615 23.8001C22.4496 23.2334 24.1128 22.9494 25.7782 22.9666C26.1555 22.3857 26.5956 21.8341 27.1015 21.3238C27.118 21.3067 27.1363 21.2936 27.1528 21.2765L35.7171 12.6286C35.7331 12.6119 35.747 12.5934 35.7629 12.5767C35.7799 12.5601 35.7978 12.5466 35.8148 12.5299L35.9174 12.4258L35.9234 12.4313C39.9209 8.55989 46.2641 8.60321 50.1998 12.5767C54.1344 16.5499 54.1783 22.9564 50.3433 26.9926L50.3512 27.0006L41.5368 35.9012C37.5512 39.9267 31.0884 39.9256 27.1019 35.9012C25.2841 34.0652 24.3052 31.7081 24.1446 29.3067C22.7769 29.2152 21.3968 29.4018 20.0884 29.8644C20.3685 33.1294 21.7407 36.3179 24.215 38.8163C26.9623 41.5904 30.5512 42.9928 34.152 43.0351C34.511 43.0391 34.8707 43.023 35.2287 42.9999C35.2685 42.9971 35.3083 42.9971 35.3473 42.994C35.482 42.9829 35.6145 42.9647 35.749 42.9507C35.9982 42.9255 36.2484 42.8983 36.4976 42.858C36.6442 42.8358 36.7907 42.8056 36.9371 42.7774C37.6639 42.6396 38.3826 42.4542 39.0854 42.2026C41.0345 41.5091 42.8667 40.3907 44.4258 38.8173C44.4297 38.8123 44.4337 38.8072 44.4388 38.8023L53.0729 30.0834Z" fill="#94C1FF"/>
<path d="M20.8613 23.8001C22.4494 23.2334 24.1127 22.9494 25.778 22.9666C26.0986 22.4729 26.4749 22.0069 26.888 21.5623C25.1151 21.4048 23.3197 21.5779 21.5991 22.0858C21.32 22.646 21.0658 23.2156 20.8613 23.8001Z" fill="#5C9EFF"/>
<path d="M24.3565 30.776C24.2538 30.2908 24.1776 29.8 24.1446 29.3068C22.7769 29.2153 21.3968 29.402 20.0884 29.8645C20.1287 30.3311 20.1971 30.7957 20.2819 31.2572C21.6001 30.8203 22.9864 30.6566 24.3565 30.776Z" fill="#5C9EFF"/>
<path d="M55.2377 27.8965C55.2427 27.8914 55.2487 27.888 55.2526 27.8829C60.8343 22.2474 60.8343 13.1103 55.2526 7.47476C49.6721 1.83923 40.6234 1.83923 35.042 7.47476L26.381 16.2208L26.3805 16.2213C24.3797 18.241 23.1092 20.7138 22.5429 23.3114C23.962 22.9958 25.418 22.8936 26.8609 23.0189C27.352 21.6021 28.1459 20.2688 29.267 19.1369C29.2834 19.1198 29.3017 19.1062 29.3182 19.0896L37.882 10.4418C37.899 10.4252 37.9119 10.4066 37.9289 10.39C37.9458 10.3733 37.9637 10.3598 37.9807 10.3432L38.0833 10.239L38.0883 10.2446C42.0858 6.37313 48.43 6.41592 52.3657 10.39C56.3005 14.3631 56.3432 20.7696 52.5092 24.8058L52.5171 24.8138L43.7028 33.7134C42.5813 34.8463 41.2614 35.6486 39.8588 36.1438C39.8578 36.1438 39.8568 36.1438 39.8559 36.1448C39.0764 36.4196 38.2719 36.6078 37.4573 36.6863C37.4543 36.6863 37.4513 36.6863 37.4494 36.6863C35.976 36.8274 34.4808 36.634 33.0711 36.1297C33.0701 36.1287 33.0701 36.1287 33.0701 36.1287H33.0691C31.6825 35.6315 30.3774 34.8352 29.2675 33.7134C28.1575 32.5929 27.3685 31.2752 26.8765 29.8745C25.464 29.3697 23.9671 29.1819 22.4907 29.3254C23.032 32.0015 24.3246 34.5544 26.3806 36.63C31.9618 42.2662 41.0106 42.2662 46.5909 36.63C46.5959 36.625 46.5999 36.6199 46.6049 36.6149L55.2377 27.8965Z" fill="#D7E9FF"/>
<path d="M55.2377 27.8965C55.2427 27.8914 55.2487 27.888 55.2526 27.8829C60.8343 22.2474 60.8343 13.1103 55.2526 7.47476C55.0094 7.22868 54.7512 7.00722 54.495 6.78266C59.3657 12.452 59.1465 21.0358 53.809 26.4254C53.8051 26.4299 53.7991 26.4339 53.7941 26.4389L45.1611 35.1574C45.1562 35.1624 45.1522 35.1674 45.1472 35.1725C39.784 40.5881 31.2268 40.7844 25.6138 35.7906C25.857 36.0774 26.1111 36.3583 26.3804 36.63C31.9615 42.2662 41.0103 42.2662 46.5907 36.63C46.5956 36.625 46.5996 36.6199 46.6046 36.6149L55.2377 27.8965Z" fill="#94C1FF"/>
<path d="M27.8244 17.6788H27.8249L36.4858 8.9323C41.8231 3.54286 50.3245 3.32204 55.9391 8.24033C55.7168 7.98162 55.4974 7.72097 55.2532 7.47476C49.6726 1.83923 40.6239 1.83923 35.0425 7.47476L26.3814 16.2208L26.3809 16.2213C24.7869 17.8308 23.6559 19.7278 22.9756 21.7461L25.1154 21.512C25.7847 20.1279 26.6849 18.8293 27.8244 17.6788Z" fill="white"/>
<path d="M33.5655 49.7826C35.5663 47.7622 36.8373 45.289 37.4034 42.6918C35.9818 43.0089 34.5233 43.1106 33.0779 42.9839C32.6093 44.3337 31.8637 45.6081 30.8225 46.7053L30.8304 46.7124L22.0159 55.613C18.0298 59.6385 11.5671 59.6374 7.5805 55.613C3.59395 51.5874 3.59395 45.0606 7.57999 41.036C7.59697 41.0189 7.61484 41.0059 7.63182 40.9888L16.1956 32.3404C16.212 32.3243 16.2254 32.3052 16.2418 32.2891C16.2588 32.2719 16.2767 32.2589 16.2937 32.2418L16.3964 32.1376L16.4019 32.1432C20.3993 28.2717 26.7431 28.3145 30.6788 32.2886C31.7888 33.4095 32.5773 34.7277 33.0689 36.1289C34.4814 36.6353 35.9808 36.8286 37.4571 36.6866C36.9177 34.0065 35.6239 31.4516 33.5662 29.3735C27.9851 23.738 18.9363 23.738 13.3549 29.374L4.69399 38.12L4.69297 38.1211C-0.887666 43.7561 -0.887156 52.8933 4.69399 58.5283C10.275 64.1644 19.3233 64.1644 24.9043 58.5294C24.9088 58.5243 24.9132 58.5183 24.9173 58.5143L33.5513 49.796C33.5565 49.7906 33.5615 49.7866 33.5655 49.7826Z" fill="#94C1FF"/>
<path d="M27.7198 31.6778C27.3819 31.098 27.0948 30.4965 26.8765 29.8744C25.464 29.3696 23.9671 29.1818 22.4907 29.3253C22.5885 29.8079 22.7196 30.2851 22.8666 30.7577C24.5189 30.6596 26.1866 30.9671 27.7198 31.6778Z" fill="#94C1FF"/>
<path d="M33.0715 34.6722C33.0705 34.6711 33.0705 34.6711 33.0705 34.6711C32.7814 34.5684 32.5003 34.4445 32.2212 34.3147C32.561 34.8975 32.8503 35.5026 33.0696 36.1286C34.4822 36.6349 35.9815 36.8283 37.4578 36.6862C37.3601 36.2001 37.2286 35.7199 37.0811 35.2428C35.7272 35.3213 34.3645 35.1331 33.0715 34.6722Z" fill="#5C9EFF"/>
<path d="M33.0783 42.9838C32.9148 43.4558 32.7044 43.9128 32.4722 44.3617C33.0294 44.4351 33.5897 44.4866 34.1519 44.4926C34.5109 44.4966 34.8706 44.4805 35.2295 44.4574C35.2684 44.4545 35.3081 44.4545 35.3471 44.4524C35.4817 44.4403 35.6143 44.4223 35.7488 44.4081C35.998 44.3829 36.2482 44.3557 36.4974 44.3154C36.644 44.2933 36.7905 44.2632 36.9369 44.235C36.9489 44.2329 36.9609 44.2289 36.9728 44.227C37.1423 43.7217 37.2908 43.2102 37.4035 42.6918C35.9823 43.0089 34.5238 43.1106 33.0783 42.9838Z" fill="#5C9EFF"/>
<path d="M35.7322 47.5951C37.2913 46.0217 38.3979 44.1706 39.0857 42.2026C37.4918 42.7714 35.8229 43.0552 34.1522 43.0351C33.8133 43.5545 33.4295 44.0538 32.9888 44.5179L32.9959 44.5259L24.1824 53.4265C20.1968 57.4509 13.7331 57.4509 9.74701 53.4255C5.76045 49.3998 5.76097 42.874 9.7465 38.8495C9.76348 38.8324 9.78135 38.8183 9.79833 38.8013L18.3626 30.1528C18.3791 30.1367 18.3924 30.1177 18.4088 30.1015C18.4248 30.0849 18.4437 30.0714 18.4596 30.0547L18.5629 29.9511L18.5679 29.9561C22.5658 26.0847 28.9096 26.1275 32.8453 30.1015C34.6646 31.9386 35.6406 34.2967 35.7971 36.6995C37.1678 36.7932 38.5494 36.6058 39.8593 36.1438C39.5802 32.8757 38.2085 29.6863 35.7322 27.1863C30.1517 21.5507 21.103 21.5507 15.5219 27.1863L6.8605 35.9324L6.85999 35.9334C1.27935 41.5684 1.27884 50.7055 6.85999 56.3416C12.441 61.9776 21.4903 61.9766 27.0708 56.3416C27.0758 56.3365 27.0792 56.3315 27.0842 56.3265L35.7182 47.6091C35.7222 47.604 35.7273 47.6002 35.7322 47.5951Z" fill="#D7E9FF"/>
<path d="M22.543 23.3114C23.962 22.9958 25.418 22.8936 26.8609 23.0189C27.025 22.5458 27.2354 22.0868 27.4686 21.6368C25.9768 21.4415 24.4625 21.4732 22.9817 21.7536C22.8091 22.267 22.6577 22.7853 22.543 23.3114Z" fill="#94C1FF"/>
<path d="M37.4495 35.2288C36.8286 35.2882 36.2055 35.2751 35.5854 35.2177C35.6881 35.7069 35.7648 36.2011 35.7967 36.6994C37.1674 36.7931 38.5491 36.6056 39.859 36.1436C39.8192 35.6736 39.7502 35.2065 39.6646 34.7426C38.9438 34.9819 38.2062 35.1562 37.4574 35.2287C37.4545 35.2288 37.4514 35.2288 37.4495 35.2288Z" fill="#94C1FF"/>
<path d="M34.1516 43.0351C33.8346 43.5224 33.4717 43.9894 33.0649 44.4283C33.4269 44.4605 33.7886 44.4888 34.1516 44.4928C34.5106 44.4968 34.8703 44.4807 35.2292 44.4576C35.2681 44.4546 35.3078 44.4546 35.3467 44.4526C35.4814 44.4404 35.6139 44.4224 35.7485 44.4082C35.9977 44.3831 36.2479 44.3559 36.4971 44.3155C36.6436 44.2935 36.7902 44.2633 36.9366 44.2351C37.4181 44.1434 37.8937 44.0217 38.3661 43.8837C38.6383 43.334 38.8855 42.7764 39.0849 42.2026C37.491 42.7714 35.8223 43.0552 34.1516 43.0351Z" fill="#94C1FF"/>
<path d="M35.7176 47.6091C35.7215 47.604 35.7265 47.6002 35.7315 47.5952C36.836 46.4799 37.7143 45.2255 38.3781 43.8877L38.2326 43.9159C37.8039 44.0388 37.3733 44.1525 36.9366 44.2351C36.7902 44.2633 36.6436 44.2935 36.4971 44.3155C36.2479 44.3557 35.9977 44.3829 35.7485 44.4082C35.7425 44.4092 35.7365 44.4103 35.7315 44.4103C35.3047 45.0152 34.8263 45.595 34.2879 46.1376C34.2829 46.1426 34.278 46.1456 34.273 46.1508L25.64 54.8691C25.635 54.8741 25.6316 54.8791 25.6266 54.8842C20.2898 60.2726 11.7884 60.4951 6.17383 55.5757C6.39672 55.8345 6.61553 56.0961 6.85923 56.3417C12.4403 61.9777 21.4895 61.9767 27.07 56.3417C27.075 56.3367 27.0785 56.3316 27.0834 56.3266L35.7176 47.6091Z" fill="#94C1FF"/>
<path d="M56.0095 40.8044C56.522 42.4151 51.5346 45.47 49.9386 45.9874C48.3435 46.5049 46.6409 45.615 46.1205 44.0126C46.0915 43.9249 46.0697 43.8444 46.0557 43.7568C45.7087 42.2258 46.575 40.6515 48.0834 40.1633C49.6785 39.6459 55.4973 39.1938 56.0095 40.8044Z" fill="#D7E9FF"/>
<path d="M56.0097 40.8044C55.9201 40.5216 55.6599 40.3062 55.2949 40.1401C55.6658 41.7658 50.7921 44.7474 49.2171 45.2587C48.2749 45.5637 47.2999 45.3695 46.5483 44.836C47.2959 45.8929 48.6478 46.4064 49.9389 45.9876C51.5349 45.4701 56.5221 42.4151 56.0097 40.8044Z" fill="#94C1FF"/>
<path d="M46.8423 44.7413C46.8133 44.6536 46.7924 44.5732 46.7775 44.4857C46.4306 42.9547 47.2968 41.3802 48.8052 40.892C50.1211 40.4651 54.3011 40.0867 56.0166 40.8688C56.0116 40.8477 56.0166 40.8245 56.0095 40.8044C55.4971 39.1938 49.6784 39.6459 48.0834 40.1632C46.5751 40.6514 45.7087 42.2257 46.0557 43.7567C46.0696 43.8444 46.0915 43.9249 46.1205 44.0125C46.3328 44.6677 46.7495 45.1943 47.2698 45.5646C47.0944 45.3161 46.941 45.0463 46.8423 44.7413Z" fill="white"/>
<path d="M5.37419 32.4439C3.12139 32.6337 1.13705 31.3286 0.927174 29.4854C0.703769 27.5828 1.85819 20.906 4.19743 20.6286C6.52913 20.3593 9.16326 26.5913 9.38666 28.4938C9.59653 30.3958 7.88526 32.153 5.54717 32.4292C5.49688 32.4369 5.43202 32.4439 5.37419 32.4439Z" fill="#D7E9FF"/>
<path d="M9.38692 28.494C9.20935 26.9841 7.51263 22.7562 5.65454 21.207C7.21122 23.0854 8.51118 26.4535 8.66514 27.7651C8.87501 29.6666 7.16386 31.4236 4.82565 31.7005C4.77522 31.7081 4.71012 31.7151 4.65229 31.7151C3.42612 31.8177 2.29071 31.4683 1.4668 30.8398C2.24041 31.9199 3.73161 32.5817 5.37446 32.4439C5.43229 32.4439 5.49714 32.4368 5.54744 32.4293C7.88565 32.153 9.5968 30.396 9.38692 28.494Z" fill="#94C1FF"/>
<path d="M1.64883 30.2142C1.42556 28.3117 2.57998 21.6347 4.91909 21.358C5.40011 21.302 5.893 21.5342 6.37607 21.9362C5.67471 21.0902 4.92151 20.5456 4.19743 20.6286C1.85819 20.9059 0.703769 27.5828 0.927174 29.4854C1.02279 30.3249 1.49832 31.0431 2.18819 31.5686C1.90109 31.1675 1.70615 30.7131 1.64883 30.2142Z" fill="white"/>
<path d="M6.83624 35.8811C6.83126 35.8861 6.82526 35.8901 6.82131 35.8942C1.23965 41.5304 1.24016 50.6674 6.82131 56.3024C7.06501 56.549 7.32378 56.7704 7.57986 56.9949C2.70863 51.3257 2.92743 42.7422 8.26475 37.3517C8.26922 37.3478 8.27471 37.3438 8.27969 37.3386L16.9132 28.6203C16.9182 28.6153 16.9226 28.6097 16.9266 28.6052C22.2893 23.1901 30.8471 22.9938 36.4605 27.9871C36.2174 27.7001 35.9632 27.4189 35.6939 27.1475C30.1129 21.512 21.0647 21.5115 15.4831 27.1475C15.4787 27.1515 15.4747 27.1576 15.4697 27.1621L6.83624 35.8811Z" fill="white"/>
<path d="M53.0856 30.5831C52.9552 30.5831 52.8244 30.5329 52.7247 30.4322C52.5253 30.2308 52.5253 29.9047 52.7247 29.7035L54.891 27.5171C60.2643 22.0914 60.2643 13.2633 54.891 7.83711C49.5178 2.41145 40.7741 2.41145 35.401 7.83711L26.7395 16.5837C25.5467 17.7891 24.5907 19.1887 23.8993 20.745C23.7848 21.0053 23.4832 21.121 23.225 21.0042C22.9678 20.8881 22.8527 20.583 22.9683 20.3234C23.7104 18.6523 24.7368 17.1489 26.0177 15.855L34.6793 7.10841C40.4503 1.28004 49.8409 1.28107 55.6128 7.10841C61.3838 12.9363 61.3838 22.4186 55.6128 28.2459L53.4465 30.4323C53.3468 30.5329 53.2164 30.5831 53.0856 30.5831Z" fill="#116FFF"/>
<path d="M36.4835 41.3631C32.6934 41.3631 28.9032 39.9054 26.0177 36.9924C24.4436 35.4029 23.2739 33.5361 22.5411 31.4423C22.4471 31.1739 22.5861 30.8796 22.8522 30.785C23.1205 30.6899 23.41 30.8302 23.5033 31.0991C24.1851 33.046 25.2742 34.7838 26.7397 36.2636C32.1124 41.6893 40.8561 41.6903 46.2293 36.2636C46.4287 36.0623 46.7516 36.0623 46.9511 36.2636C47.1505 36.465 47.1505 36.7911 46.9511 36.9924C44.0648 39.9055 40.2747 41.3631 36.4835 41.3631Z" fill="#116FFF"/>
<path d="M34.3004 43.5515C33.114 43.5515 31.9408 43.4096 30.7978 43.1267C28.182 42.4905 25.7793 41.1256 23.8524 39.1798C22.0083 37.3176 20.6844 35.0033 20.0244 32.4888C19.9523 32.2139 20.1147 31.9316 20.3874 31.8587C20.6596 31.7876 20.9386 31.9498 21.0115 32.225C21.6252 34.5635 22.8572 36.7166 24.5744 38.4511C26.3682 40.263 28.6037 41.5333 31.0387 42.1251C32.533 42.4956 34.0801 42.6074 35.6413 42.4563C38.8154 42.1523 41.8061 40.73 44.063 38.4511L52.725 29.7035C52.9244 29.5021 53.2473 29.5021 53.4467 29.7035C53.6461 29.9048 53.6461 30.231 53.4467 30.4322L44.7848 39.1798C42.3613 41.6278 39.1484 43.156 35.7381 43.4832C35.2574 43.5294 34.7778 43.5515 34.3004 43.5515Z" fill="#116FFF"/>
<path d="M36.5005 37.236C34.2425 37.236 31.9996 36.5243 30.1474 35.1484C29.7177 34.8363 29.298 34.4748 28.9048 34.0773C28.6496 33.8191 28.4088 33.5453 28.1751 33.2644C27.9936 33.0464 28.0215 32.7213 28.2373 32.538C28.4527 32.3543 28.7751 32.3824 28.9566 32.6009C29.1715 32.8586 29.3922 33.1102 29.627 33.3478C29.9819 33.7062 30.3587 34.0319 30.7479 34.3147C33.437 36.3119 37.0298 36.7628 40.1322 35.4945C41.3304 35.0112 42.409 34.2894 43.3412 33.3478L52.0031 24.6012C55.7843 20.7832 55.7843 14.5708 52.0031 10.7527C48.223 6.93567 42.0712 6.93464 38.289 10.7527L29.627 19.4993C29.1729 19.9578 28.7572 20.4711 28.3919 21.0242C28.2352 21.2604 27.9172 21.3237 27.684 21.1672C27.4492 21.009 27.3859 20.6891 27.5425 20.4524C27.9452 19.8424 28.4039 19.2768 28.9053 18.7704L37.5673 10.0239C41.7462 5.80362 48.547 5.80465 52.7248 10.0239C56.9037 14.2436 56.9037 21.1103 52.7248 25.3301L44.0628 34.0771C43.0321 35.1179 41.8377 35.9171 40.513 36.4507C39.2261 36.9773 37.8602 37.236 36.5005 37.236Z" fill="#116FFF"/>
<path d="M50.1988 27.6679C50.0682 27.6679 49.9376 27.6175 49.8379 27.517C49.6385 27.3156 49.6385 26.9895 49.8379 26.7881C53.6191 22.9701 53.6191 16.7577 49.8379 12.9396C48.0077 11.091 45.5723 10.0733 42.9803 10.0733C40.3894 10.0733 37.9541 11.091 36.1228 12.9396C35.9234 13.141 35.6004 13.141 35.401 12.9396C35.2016 12.7383 35.2016 12.4121 35.401 12.2108C37.4248 10.1674 40.1164 9.04252 42.9803 9.04252C45.8445 9.04252 48.536 10.1675 50.5596 12.2108C54.7385 16.4305 54.7385 23.2972 50.5596 27.517C50.46 27.6177 50.3293 27.6679 50.1988 27.6679Z" fill="#116FFF"/>
<path d="M33.5969 50.2636C33.4663 50.2636 33.3357 50.2132 33.236 50.1127C33.0366 49.9113 33.0366 49.5852 33.236 49.3839L35.4012 47.1975C36.1041 46.4879 36.7321 45.7027 37.2684 44.8631C37.4209 44.6246 37.737 44.5532 37.9742 44.7092C38.2105 44.8631 38.2793 45.1824 38.1266 45.4209C37.5514 46.3218 36.8776 47.1654 36.123 47.9266L33.9578 50.113C33.8581 50.2132 33.7273 50.2636 33.5969 50.2636Z" fill="#116FFF"/>
<path d="M16.9952 61.0486C13.041 61.0486 9.32364 59.4944 6.52892 56.6718C0.757939 50.8445 0.757939 41.362 6.52892 35.5347C6.72832 35.3333 7.0513 35.3333 7.25058 35.5347C7.44998 35.736 7.44998 36.0622 7.25058 36.2635C1.8779 41.6892 1.8779 50.5172 7.25058 55.9429C9.85304 58.5713 13.3136 60.0177 16.9952 60.0177C20.6772 60.0177 24.1378 58.5711 26.7402 55.9429C26.9396 55.7415 27.2626 55.7415 27.4619 55.9429C27.6613 56.1442 27.6613 56.4703 27.4619 56.6717C24.6667 59.4944 20.9499 61.0486 16.9952 61.0486Z" fill="#116FFF"/>
<path d="M39.4643 34.1336C39.239 34.1336 39.0327 33.981 38.972 33.7505C38.3488 31.4019 37.1148 29.2464 35.4011 27.517C33.2887 25.3829 30.6021 24.0214 27.6328 23.5806C26.3159 23.3974 24.982 23.3984 23.6722 23.5886C20.705 24.0289 18.0214 25.3874 15.9126 27.517L13.7473 29.7034C13.5479 29.9047 13.2248 29.9047 13.0255 29.7034C12.8261 29.502 12.8261 29.1759 13.0255 28.9745L15.1908 26.7881C17.4557 24.5012 20.3381 23.0416 23.5258 22.5685C24.9327 22.3656 26.3629 22.3627 27.777 22.5605C30.9695 23.0346 33.8541 24.4963 36.123 26.7883C37.9632 28.6455 39.2891 30.9612 39.958 33.4849C40.0306 33.7598 39.8693 34.0421 39.5971 34.1166C39.5531 34.1275 39.5083 34.1336 39.4643 34.1336Z" fill="#116FFF"/>
<path d="M14.83 63.2299C11.0393 63.2299 7.24908 61.7733 4.36372 58.8592C1.56849 56.0367 0.0292969 52.284 0.0292969 48.2907C0.0292969 44.2975 1.56849 40.5448 4.36372 37.7222L13.0257 28.9746C13.2251 28.7733 13.5481 28.7733 13.7475 28.9746C13.9469 29.176 13.9469 29.5021 13.7475 29.7035L5.08538 38.4511C2.48304 41.0783 1.05006 44.5733 1.05006 48.2907C1.05006 52.0081 2.48317 55.5032 5.08538 58.1304C10.4582 63.555 19.2008 63.5561 24.5745 58.1304L33.236 49.3839C33.4354 49.1825 33.7584 49.1825 33.9578 49.3839C34.1572 49.5852 34.1572 49.9113 33.9578 50.1127L25.2962 58.8592C22.4108 61.7723 18.6202 63.2299 14.83 63.2299Z" fill="#116FFF"/>
<path d="M16.9953 56.9255C14.1312 56.9255 11.4396 55.8002 9.41594 53.7566C7.39228 51.7132 6.27832 48.9953 6.27832 46.1033C6.27832 43.2113 7.39279 40.4933 9.41594 38.4511L18.078 29.7035C22.2573 25.4842 29.0576 25.4842 33.2356 29.7035C34.2833 30.7614 35.0938 32.007 35.645 33.4053C35.7487 33.6701 35.621 33.969 35.3589 34.0752C35.0977 34.1779 34.8007 34.051 34.6961 33.7858C34.1976 32.5189 33.4629 31.3905 32.5139 30.4322C28.7322 26.6141 22.5799 26.6151 18.7997 30.4322L10.1377 39.1798C8.30734 41.0279 7.29909 43.4872 7.29909 46.1033C7.29909 48.7205 8.30696 51.1798 10.1377 53.0279C11.9685 54.876 14.4039 55.8946 16.9953 55.8946C19.5867 55.8946 22.0221 54.876 23.8523 53.0279L31.7921 45.0102C31.9915 44.8088 32.3145 44.8088 32.5138 45.0102C32.713 45.2115 32.7132 45.5377 32.5138 45.739L24.5741 53.7566C22.551 55.8 19.8594 56.9255 16.9953 56.9255Z" fill="#116FFF"/>
<path d="M31.4107 33.5503C31.2642 33.5503 31.1187 33.4869 31.0179 33.3649C30.8111 33.1143 30.5908 32.8631 30.3491 32.619C28.0712 30.3184 24.8144 29.3157 21.6393 29.9323C19.7373 30.3047 18.0061 31.2339 16.6344 32.619C16.435 32.8203 16.112 32.8203 15.9127 32.619C15.7133 32.4176 15.7133 32.0915 15.9127 31.8902C17.4289 30.3591 19.3419 29.3324 21.4454 28.9206C24.9588 28.2356 28.5537 29.348 31.0708 31.8902C31.334 32.1564 31.5752 32.4302 31.8015 32.704C31.982 32.9224 31.9532 33.2471 31.7368 33.4303C31.6421 33.51 31.5252 33.5503 31.4107 33.5503Z" fill="#116FFF"/>
<path d="M46.4514 44.2793C46.3148 44.2793 46.1772 44.2772 46.0366 44.2722C44.5702 44.2299 43.053 43.8886 41.5307 43.2575C41.2694 43.1488 41.145 42.8478 41.2526 42.5851C41.3592 42.3213 41.6593 42.1955 41.9184 42.3032C43.326 42.887 44.7227 43.2031 46.0696 43.2412C49.0313 43.357 50.7949 42.142 50.8117 42.1289C51.045 41.9679 51.3621 42.0273 51.5215 42.2618C51.681 42.4963 51.6221 42.8165 51.391 42.9786C51.3113 43.0341 49.4819 44.2793 46.4514 44.2793Z" fill="#116FFF"/>
<path fill-rule="evenodd" clip-rule="evenodd" d="M45.6352 44.1736C46.1168 45.6543 47.4735 46.6499 49.0127 46.6499C49.3796 46.6499 49.7434 46.5925 50.0954 46.4778C50.9039 46.2161 52.5716 45.3353 54.068 44.2209C55.98 42.7966 56.7975 41.5937 56.4955 40.6465C56.1833 39.666 54.7439 39.1687 52.2177 39.1687C50.6576 39.1687 48.8134 39.385 47.9281 39.6721C46.1936 40.2338 45.1528 42.0789 45.5526 43.8414C45.5715 43.9561 45.5985 44.0609 45.6352 44.1736ZM48.2401 40.6534C48.9278 40.4311 50.6046 40.1995 52.2176 40.1995C54.3222 40.1995 55.4068 40.595 55.5231 40.9624C55.6089 41.2301 55.271 42.0435 53.4616 43.3914C52.1219 44.3889 50.509 45.2617 49.7831 45.4972C48.4773 45.916 47.0309 45.1611 46.6042 43.8494C46.5842 43.7891 46.5693 43.7327 46.5533 43.6421C46.2642 42.3657 47.005 41.053 48.2401 40.6534Z" fill="#116FFF"/>
<path d="M29.0598 65.97C28.835 65.97 28.6083 65.9417 28.3845 65.8844C27.6816 65.7033 27.0905 65.2592 26.7202 64.6342C26.0871 63.5441 26.442 62.1328 27.5097 61.4854C28.4155 60.9458 29.5952 61.2459 30.1431 62.1549C30.2895 62.3975 30.2133 62.7146 29.9726 62.8624C29.7304 63.0123 29.4177 62.934 29.2708 62.6903C29.0126 62.2615 28.4574 62.1145 28.0321 62.3712C27.4454 62.7266 27.2496 63.5076 27.5986 64.1086C27.8274 64.4952 28.1967 64.7719 28.6358 64.8847C29.0764 64.9985 29.5291 64.931 29.9143 64.6984C30.4323 64.3905 30.7966 63.8983 30.9431 63.3124C31.0897 62.7276 31 62.1206 30.6915 61.6031C30.2364 60.8289 29.4089 60.2532 28.4759 60.0599C27.8026 59.92 26.7753 59.9221 25.6991 60.7173C25.4708 60.8864 25.1514 60.835 24.9858 60.6055C24.8193 60.3761 24.8687 60.0539 25.096 59.8859C26.1711 59.0906 27.4445 58.7907 28.6808 59.0504C29.8908 59.3001 30.9701 60.057 31.5671 61.0748C32.0157 61.8256 32.1463 62.7115 31.933 63.565C31.7187 64.4197 31.1874 65.1363 30.4357 65.5853C30.0143 65.839 29.5413 65.97 29.0598 65.97Z" fill="#116FFF"/>
<path d="M33.0126 6.76345C32.6217 6.76345 32.2311 6.70699 31.8492 6.59342C30.7247 6.25968 29.7658 5.45699 29.2831 4.44623C28.9198 3.70077 28.8685 2.85115 29.1391 2.0585C29.4093 1.26624 29.968 0.630091 30.7117 0.26722C31.3277 -0.0393195 32.0315 -0.0841789 32.6865 0.143341C33.3405 0.37086 33.8659 0.842013 34.165 1.46914C34.4202 1.99353 34.456 2.5905 34.2635 3.14557C34.0722 3.69767 33.6804 4.13969 33.159 4.38887C32.2579 4.83823 31.1563 4.45835 30.7068 3.53976C30.5817 3.28466 30.6854 2.97554 30.938 2.84921C31.1904 2.7225 31.4952 2.82768 31.6219 3.08279C31.8222 3.49194 32.3117 3.66209 32.7145 3.46126C32.9946 3.32733 33.2 3.09594 33.2997 2.80603C33.4014 2.51315 33.3824 2.19862 33.2479 1.92018C33.0654 1.53914 32.7485 1.2558 32.3536 1.11839C31.9579 0.979427 31.5331 1.00714 31.1595 1.19341C30.6591 1.43795 30.2851 1.86385 30.1041 2.3943C29.9227 2.92578 29.9572 3.494 30.2009 3.9948C30.5618 4.75135 31.285 5.35167 32.1374 5.60484C32.7534 5.78866 33.7114 5.86768 34.774 5.21129C35.0154 5.06227 35.3283 5.13923 35.4759 5.38132C35.6234 5.62443 35.5477 5.94154 35.3074 6.09004C34.5866 6.53554 33.7991 6.76345 33.0126 6.76345Z" fill="#116FFF"/>
<path fill-rule="evenodd" clip-rule="evenodd" d="M0.420133 29.5443C0.643026 31.5017 2.586 32.9774 4.94005 32.9774C5.09707 32.9774 5.25664 32.9709 5.37422 32.9593C5.45694 32.9593 5.55026 32.9496 5.60643 32.9411C8.21081 32.6335 10.1339 30.6128 9.89362 28.4329C9.69269 26.7257 7.03098 19.7755 4.13809 20.1167C3.55992 20.1852 3.02362 20.5315 2.54311 21.1466C0.981835 23.1447 0.22175 27.8547 0.420133 29.5443ZM3.34456 21.7849C3.6512 21.3928 3.95758 21.1758 4.34541 21.1356C6.14579 21.1356 8.65545 26.6448 8.87911 28.5509C9.05771 30.1655 7.53588 31.6755 5.48783 31.9176C5.48643 31.9177 5.47577 31.9186 5.46064 31.9198C5.41682 31.9233 5.33541 31.9298 5.33171 31.9306C3.33052 32.0987 1.6089 30.9647 1.43401 29.4247C1.27596 28.0777 1.93443 23.5897 3.34456 21.7849Z" fill="#116FFF"/>
<path d="M4.98473 36.0793C4.94031 36.0793 4.89499 36.0733 4.85005 36.0611C4.57839 35.9868 4.41741 35.7029 4.49171 35.4291C4.71601 34.5966 4.84099 33.5886 4.86397 32.4333C4.95524 29.4673 4.40848 26.4088 4.40299 26.378C4.35218 26.0981 4.5355 25.8299 4.81316 25.7785C5.0898 25.7247 5.35648 25.9129 5.40678 26.1922C5.43027 26.3215 5.97895 29.3862 5.88473 32.46C5.85984 33.6931 5.72273 34.7857 5.47661 35.6988C5.41482 35.9284 5.20903 36.0793 4.98473 36.0793Z" fill="#116FFF"/>
</svg>
